<?xml version="1.0" encoding="UTF-8"?>
<svg id="Layer_1" data-name="Layer 1" xmlns="http://www.w3.org/2000/svg" viewBox="0 0 420 322.4">
  <rect x="-8.67" y="-15.33" width="437.33" height="356" style="fill: #fff;"/>
  <path d="M42.4,40h25.2v25.2h-25.2s0-25.2,0-25.2Z" style="fill: #fff;"/>
  <path d="M43.5,41.1h11v11h-11v-11Z" style="fill: #e24e3c;"/>
  <path d="M55.6,41.1h11v11h-11v-11Z" style="fill: #87bc2a;"/>
  <path d="M43.5,53.2h11v10.9h-11s0-10.9,0-10.9Z" style="fill: #37a9db;"/>
  <path d="M55.6,53.2h11v10.9h-11s0-10.9,0-10.9Z" style="fill: #f4b019;"/>
  <g>
    <path d="M85.5,60.3h-2v-8c0-.7,0-1.5,.1-2.4h0c-.1,.5-.2,.9-.3,1.2l-3.7,9.2h-1.4l-3.7-9.1c-.1-.3-.2-.7-.3-1.2h0c.1,.5,.1,1.3,.1,2.4v8h-1.9v-12.5h2.9l3.2,8.2c.2,.6,.4,1.1,.5,1.4h0c.2-.7,.4-1.1,.5-1.4l3.3-8.2h2.8l-.1,12.4h0Z" style="fill: #767676;"/>
    <path d="M89.4,49.6c-.3,0-.6-.1-.8-.3s-.3-.5-.3-.8,.1-.6,.3-.8c.2-.2,.5-.3,.8-.3s.6,.1,.9,.3c.2,.2,.3,.5,.3,.8s-.1,.6-.3,.8c-.3,.2-.6,.3-.9,.3h0Zm.9,10.7h-2v-8.8h2v8.8Z" style="fill: #767676;"/>
    <path d="M99.2,59.9c-.7,.4-1.5,.6-2.5,.6-1.3,0-2.4-.4-3.2-1.2s-1.2-1.9-1.2-3.2c0-1.5,.4-2.6,1.3-3.5s2-1.3,3.5-1.3c.8,0,1.5,.1,2.1,.4v1.9c-.6-.5-1.3-.7-2-.7-.8,0-1.5,.3-2.1,.8-.5,.6-.8,1.3-.8,2.2s.2,1.6,.8,2.2,1.2,.8,2,.8c.7,0,1.4-.2,2-.8l.1,1.8h0Z" style="fill: #767676;"/>
    <path d="M106.3,53.4c-.2-.2-.6-.3-1-.3-.6,0-1.1,.3-1.5,.8s-.6,1.3-.6,2.2v4.2h-2v-8.8h2v1.8h0c.2-.6,.5-1.1,.9-1.5s.8-.5,1.3-.5c.4,0,.6,0,.8,.2l.1,1.9h0Z" style="fill: #767676;"/>
    <path d="M111.5,60.5c-1.4,0-2.4-.4-3.2-1.2s-1.3-2-1.3-3.3c0-1.5,.4-2.6,1.3-3.5s2-1.2,3.4-1.2,2.4,.4,3.2,1.2,1.2,1.9,1.2,3.4-.4,2.5-1.2,3.4-2,1.2-3.4,1.2Zm.1-7.6c-.8,0-1.4,.3-1.8,.8s-.7,1.3-.7,2.2,.2,1.7,.7,2.2,1.1,.8,1.8,.8,1.4-.3,1.8-.8,.6-1.3,.6-2.2-.2-1.7-.6-2.2-1-.8-1.8-.8Z" style="fill: #767676;"/>
    <path d="M117.5,60v-1.8c.7,.6,1.6,.8,2.5,.8,1.2,0,1.8-.3,1.8-1.1,0-.2-.1-.4-.2-.5s-.2-.3-.4-.4l-.6-.3c-.2-.1-.5-.2-.8-.3-.4-.1-.7-.3-1-.5s-.5-.3-.7-.5-.3-.4-.4-.7-.2-.6-.2-.9c0-.4,.1-.8,.3-1.1,.2-.3,.5-.6,.8-.8s.7-.4,1.2-.5,.9-.2,1.3-.2c.8,0,1.5,.1,2.2,.4v1.7c-.6-.4-1.3-.6-2.1-.6-.2,0-.5,0-.7,.1-.2,0-.4,.1-.5,.2s-.3,.2-.3,.3-.1,.3-.1,.4c0,.2,0,.3,.1,.5s.2,.2,.4,.3,.3,.2,.6,.3,.5,.2,.8,.3c.4,.2,.7,.3,1,.5s.6,.3,.8,.5c.2,.2,.4,.4,.5,.7s.2,.6,.2,1c0,.5-.1,.8-.3,1.2-.2,.3-.5,.6-.8,.8s-.7,.4-1.2,.5-.9,.2-1.4,.2c-1.2,0-2.1-.2-2.8-.5h0Z" style="fill: #767676;"/>
    <path d="M129.6,60.5c-1.4,0-2.4-.4-3.2-1.2s-1.2-1.9-1.2-3.3c0-1.5,.4-2.6,1.3-3.5s2-1.2,3.4-1.2,2.4,.4,3.2,1.2,1.1,1.9,1.1,3.4-.4,2.5-1.2,3.4-2,1.2-3.4,1.2h0Zm.1-7.6c-.8,0-1.4,.3-1.8,.8-.4,.5-.7,1.3-.7,2.2s.2,1.7,.7,2.2,1.1,.8,1.8,.8,1.4-.3,1.8-.8,.6-1.3,.6-2.2-.2-1.7-.6-2.2-1.1-.8-1.8-.8Z" style="fill: #767676;"/>
    <path d="M140.9,48.9c-.3-.2-.6-.2-.9-.2-1,0-1.4,.5-1.4,1.6v1.2h2v1.5h-2v7.2h-2v-7.2h-1.6v-1.6h1.5v-1.4c0-.9,.3-1.7,.9-2.2s1.4-.8,2.3-.8c.5,0,.9,0,1.2,.2v1.7h0Z" style="fill: #767676;"/>
    <path d="M146.9,60.2c-.4,.2-.9,.3-1.5,.3-1.7,0-2.6-.8-2.6-2.5v-5h-1.5v-1.6h1.5v-2l2-.6v2.6h2.1v1.6h-2.1v4.4c0,.5,.1,.9,.3,1.1,.2,.2,.5,.3,.9,.3,.3,0,.6-.1,.9-.3v1.7h0Z" style="fill: #767676;"/>
  </g>
  <g>
    <path d="M44.04,186.95c0,.11,.11,.22,.11,.44v.55c0,.22,0,.55-.11,.66-.11,.22-.22,.44-.44,.55s-.33,.33-.55,.55-.33,.33-.55,.55-.33,.33-.44,.55c-.11,.22-.11,.44-.11,.66s0,.33,.11,.55c.11,.11,.22,.33,.33,.44,.11,.11,.33,.22,.44,.22s.33,.11,.55,.11c.66,0,1.32-.22,1.87-.88v1.1c-.66,.44-1.32,.55-1.98,.55-.33,0-.66,0-.88-.11s-.55-.22-.77-.33-.33-.33-.55-.66c-.11-.22-.22-.55-.22-.88s0-.55,.22-.88c.11-.22,.22-.44,.44-.66,.22-.22,.33-.44,.55-.55,.22-.22,.33-.33,.55-.55s.33-.33,.44-.55,.22-.44,.22-.66,0-.33-.11-.55-.11-.33-.11-.44l.99,.22h0Zm-.55-2.64c.22,0,.33,.11,.44,.22,.11,.11,.22,.33,.22,.44s-.11,.33-.22,.44c-.11,.11-.33,.22-.44,.22s-.33-.11-.44-.22c-.11-.11-.22-.33-.22-.44s.11-.33,.22-.44,.22-.22,.44-.22Z" style="fill: #737373;"/>
    <path d="M54.17,190.81h-1.32l-4.62-7.05c-.11-.22-.22-.33-.33-.55h0v7.71h-1.1v-8.92h1.32l4.4,7.05c.22,.33,.33,.44,.33,.55h0c0-.22-.11-.66-.11-1.32v-6.28h1.1v8.81h.33Z" style="fill: #737373;"/>
    <path d="M59.02,191.03c-.88,0-1.65-.33-2.2-.88s-.88-1.43-.88-2.31c0-1.1,.33-1.87,.88-2.53s1.32-.88,2.42-.88c.99,0,1.65,.33,2.2,.88s.77,1.43,.77,2.42-.33,1.87-.88,2.42-1.32,.88-2.31,.88h0Zm.11-5.83c-.66,0-1.21,.22-1.54,.66-.33,.44-.55,1.1-.55,1.87s.22,1.32,.55,1.76c.33,.44,.88,.66,1.54,.66s1.21-.22,1.54-.66,.55-.99,.55-1.76-.22-1.43-.55-1.87-.88-.66-1.54-.66Z" style="fill: #737373;"/>
    <path d="M70.36,190.81c-.22,.11-.55,.22-.99,.22-1.1,0-1.65-.66-1.65-1.87v-3.74h-1.1v-.88h1.1v-1.54l.99-.33v1.87h1.65v.88h-1.65v3.63c0,.44,.11,.77,.22,.88s.33,.22,.77,.22c.22,0,.44-.11,.66-.22v.88h0Z" style="fill: #737373;"/>
    <path d="M72.23,182.88c-.22,0-.33-.11-.44-.22s-.22-.33-.22-.44,.11-.33,.22-.44c.11-.11,.33-.22,.44-.22s.33,.11,.44,.22c.11,.11,.22,.33,.22,.44s-.11,.33-.22,.44-.33,.22-.44,.22Zm.44,7.93h-.99v-6.39h.99v6.39Z" style="fill: #737373;"/>
    <path d="M79.82,187.95h-4.51c0,.66,.22,1.21,.55,1.65s.88,.55,1.54,.55c.77,0,1.32-.22,1.98-.66v.99c-.55,.44-1.32,.66-2.2,.66s-1.65-.33-2.09-.88c-.55-.55-.77-1.43-.77-2.42s.22-1.76,.88-2.42c.55-.66,1.21-.99,2.09-.99s1.43,.22,1.98,.77,.66,1.32,.66,2.2l-.11,.55h0Zm-.99-.88c0-.55-.11-.99-.44-1.32s-.66-.44-1.21-.44-.88,.22-1.21,.55c-.33,.33-.55,.77-.66,1.32,.11-.11,3.52-.11,3.52-.11Z" style="fill: #737373;"/>
    <path d="M86.65,190.81h-.99v-3.63c0-1.32-.44-1.98-1.43-1.98-.55,0-.88,.22-1.32,.55s-.44,.88-.44,1.43v3.63h-.99v-6.39h.99v1.1h0c.44-.77,1.21-1.21,2.09-1.21,.66,0,1.21,.22,1.54,.66,.33,.44,.55,1.1,.55,1.98v3.85h0Z" style="fill: #737373;"/>
    <path d="M93.7,187.95h-4.51c0,.66,.22,1.21,.55,1.65s.88,.55,1.54,.55c.77,0,1.32-.22,1.98-.66v.99c-.55,.44-1.32,.66-2.2,.66s-1.65-.33-2.09-.88c-.55-.55-.77-1.43-.77-2.42s.22-1.76,.88-2.42c.55-.66,1.21-.99,2.09-.99s1.43,.22,1.98,.77,.66,1.32,.66,2.2l-.11,.55h0Zm-.99-.88c0-.55-.11-.99-.44-1.32s-.66-.44-1.21-.44-.88,.22-1.21,.55c-.33,.33-.55,.77-.66,1.32,.11-.11,3.52-.11,3.52-.11Z" style="fill: #737373;"/>
    <path d="M103.93,190.81h-.99v-.99h0c-.44,.77-1.1,1.21-1.98,1.21-1.54,0-2.31-.88-2.31-2.75v-3.85h.99v3.63c0,1.32,.55,1.98,1.54,1.98,.44,0,.88-.22,1.21-.55,.33-.33,.44-.88,.44-1.43v-3.63h.99l.11,6.39h0Z" style="fill: #737373;"/>
    <path d="M111.31,190.81h-.99v-3.63c0-1.32-.44-1.98-1.43-1.98-.55,0-.88,.22-1.32,.55s-.44,.88-.44,1.43v3.63h-1.1v-6.39h.99v1.1h0c.44-.77,1.21-1.21,2.09-1.21,.66,0,1.21,.22,1.54,.66,.33,.44,.55,1.1,.55,1.98l.11,3.85h0Z" style="fill: #737373;"/>
    <path d="M117.7,190.81h-.99v-.99h0c-.44,.77-1.1,1.1-1.98,1.1-.66,0-1.1-.11-1.43-.55-.33-.33-.55-.77-.55-1.32,0-1.21,.66-1.87,2.09-2.09l1.87-.22c0-1.1-.44-1.65-1.32-1.65-.77,0-1.43,.22-2.09,.77v-.99c.66-.44,1.32-.55,2.2-.55,1.54,0,2.2,.77,2.2,2.42v4.07h0Zm-.99-3.19l-1.54,.22c-.44,.11-.88,.22-1.1,.33s-.33,.44-.33,.88c0,.33,.11,.55,.33,.77,.22,.22,.55,.33,.88,.33,.55,0,.88-.22,1.21-.55s.44-.77,.44-1.32l.11-.66h0Z" style="fill: #737373;"/>
    <path d="M127.49,190.59c-.44,.33-1.1,.44-1.76,.44-.88,0-1.65-.33-2.2-.88s-.88-1.32-.88-2.31,.33-1.87,.88-2.53,1.43-.99,2.42-.99c.55,0,1.1,.11,1.43,.33v.99c-.44-.33-.99-.44-1.54-.44-.66,0-1.21,.22-1.54,.66-.44,.44-.66,1.1-.66,1.87s.22,1.32,.55,1.76c.44,.44,.88,.66,1.54,.66,.55,0,1.1-.22,1.54-.55l.22,.99h0Z" style="fill: #737373;"/>
    <path d="M134.21,190.81h-.99v-.99h0c-.44,.77-1.1,1.21-1.98,1.21-1.54,0-2.31-.88-2.31-2.75v-3.85h.99v3.63c0,1.32,.55,1.98,1.54,1.98,.44,0,.88-.22,1.21-.55s.44-.88,.44-1.43v-3.63h.99l.11,6.39h0Z" style="fill: #737373;"/>
    <path d="M141.37,187.95h-4.51c0,.66,.22,1.21,.55,1.65s.88,.55,1.54,.55,1.32-.22,1.98-.66v.99c-.55,.44-1.32,.66-2.2,.66s-1.65-.33-2.09-.88c-.55-.55-.77-1.43-.77-2.42s.22-1.76,.88-2.42c.55-.66,1.21-.99,2.09-.99s1.43,.22,1.98,.77,.66,1.32,.66,2.2l-.11,.55h0Zm-1.1-.88c0-.55-.11-.99-.44-1.32s-.66-.44-1.21-.44-.88,.22-1.21,.55-.55,.77-.66,1.32h3.52v-.11h0Z" style="fill: #737373;"/>
    <path d="M148.19,190.81h-.99v-3.63c0-1.32-.44-1.98-1.43-1.98-.55,0-.99,.22-1.21,.55-.33,.44-.44,.88-.44,1.43v3.63h-.99v-6.39h.99v1.1h0c.44-.77,1.21-1.21,2.09-1.21,.66,0,1.21,.22,1.54,.66s.55,1.1,.55,1.98l-.11,3.85h0Z" style="fill: #737373;"/>
    <path d="M153.04,190.81c-.22,.11-.55,.22-.99,.22-1.1,0-1.65-.66-1.65-1.87v-3.74h-1.1v-.88h1.1v-1.54l.99-.33v1.87h1.65v.88h-1.65v3.63c0,.44,.11,.77,.22,.88s.44,.22,.66,.22,.44-.11,.66-.22l.11,.88h0Z" style="fill: #737373;"/>
    <path d="M158.98,190.81h-.99v-.99h0c-.44,.77-1.1,1.1-1.98,1.1-.66,0-1.1-.11-1.54-.55-.33-.33-.55-.77-.55-1.32,0-1.21,.66-1.87,2.09-2.09l1.87-.22c0-1.1-.44-1.65-1.32-1.65-.77,0-1.43,.22-2.09,.77v-.99c.66-.44,1.32-.55,2.2-.55,1.54,0,2.2,.77,2.2,2.42l.11,4.07h0Zm-.99-3.19l-1.54,.22c-.44,.11-.88,.22-1.1,.33s-.33,.44-.33,.88c0,.33,.11,.55,.33,.77s.55,.33,.88,.33c.55,0,.88-.22,1.21-.55s.44-.77,.44-1.32l.11-.66h0Z" style="fill: #737373;"/>
    <path d="M161.95,188.39c0-.11-.11-.22-.11-.44v-.55c0-.22,.11-.55,.11-.66,.11-.22,.22-.44,.44-.55s.33-.33,.55-.55l.55-.55c.22-.22,.33-.33,.44-.55s.11-.44,.11-.66,0-.33-.11-.55-.22-.33-.33-.44c-.11-.11-.33-.22-.44-.22s-.33-.11-.55-.11c-.66,0-1.32,.22-1.76,.88v-1.1c.66-.44,1.32-.55,1.98-.55,.33,0,.66,0,.88,.11s.55,.22,.77,.33,.33,.33,.44,.66c.11,.22,.22,.55,.22,.88s-.11,.55-.11,.88c-.11,.22-.22,.44-.44,.66-.11,.22-.33,.44-.55,.55l-.55,.55c-.11,.22-.33,.33-.44,.55-.11,.22-.11,.44-.11,.66s0,.33,.11,.55,.11,.33,.11,.44l-1.21-.22h0Zm.55,2.64c-.22,0-.33-.11-.44-.22s-.22-.33-.22-.44,.11-.33,.22-.44,.33-.22,.44-.22,.33,.11,.44,.22,.22,.33,.22,.44-.11,.33-.22,.44-.22,.22-.44,.22Z" style="fill: #737373;"/>
    <path d="M176.26,190.48c-.66,.33-1.43,.55-2.42,.55-1.21,0-2.31-.44-3.08-1.21-.77-.77-1.1-1.87-1.1-3.19,0-1.43,.44-2.53,1.32-3.41s1.98-1.32,3.3-1.32c.88,0,1.54,.11,2.09,.33v1.1c-.66-.33-1.32-.55-2.09-.55-.99,0-1.87,.33-2.53,.99s-.99,1.54-.99,2.75,.33,1.98,.88,2.64,1.32,.99,2.31,.99c.88,0,1.65-.22,2.31-.55v.88h0Z" style="fill: #1667b1;"/>
    <path d="M181.33,185.52c-.22-.11-.44-.22-.77-.22-.44,0-.77,.22-1.1,.66-.33,.44-.44,.99-.44,1.65v3.19h-.99v-6.39h.99v1.32h0c.11-.44,.33-.77,.66-.99s.66-.33,.99-.33c.22,0,.44,0,.66,.11v.99h0Z" style="fill: #1667b1;"/>
    <path d="M187.49,187.95h-4.51c0,.66,.22,1.21,.55,1.65s.88,.55,1.54,.55,1.32-.22,1.98-.66v.99c-.55,.44-1.32,.66-2.2,.66s-1.65-.33-2.09-.88c-.55-.55-.77-1.43-.77-2.42s.22-1.76,.88-2.42c.55-.66,1.21-.99,2.09-.99s1.43,.22,1.98,.77,.66,1.32,.66,2.2l-.11,.55h0Zm-.99-.88c0-.55-.11-.99-.44-1.32s-.66-.44-1.21-.44-.88,.22-1.21,.55-.55,.77-.66,1.32h3.52v-.11h0Z" style="fill: #1667b1;"/>
    <path d="M194.21,187.95h-4.51c0,.66,.22,1.21,.55,1.65s.88,.55,1.54,.55,1.32-.22,1.98-.66v.99c-.55,.44-1.32,.66-2.2,.66s-1.65-.33-2.09-.88c-.55-.55-.77-1.43-.77-2.42s.22-1.76,.88-2.42c.55-.66,1.21-.99,2.09-.99s1.43,.22,1.98,.77,.66,1.32,.66,2.2l-.11,.55h0Zm-1.1-.88c0-.55-.11-.99-.44-1.32s-.66-.44-1.21-.44-.88,.22-1.21,.55-.55,.77-.66,1.32h3.52v-.11h0Z" style="fill: #1667b1;"/>
    <path d="M204.34,190.81h-.99v-.99h0c-.44,.77-1.1,1.21-1.98,1.21-1.54,0-2.31-.88-2.31-2.75v-3.85h.99v3.63c0,1.32,.55,1.98,1.54,1.98,.44,0,.88-.22,1.21-.55s.44-.88,.44-1.43v-3.63h.99l.11,6.39h0Z" style="fill: #1667b1;"/>
    <path d="M211.71,190.81h-1.1v-3.63c0-1.32-.44-1.98-1.43-1.98-.55,0-.99,.22-1.21,.55-.33,.44-.44,.88-.44,1.43v3.63h-.99v-6.39h.99v1.1h0c.44-.77,1.21-1.21,2.09-1.21,.66,0,1.21,.22,1.54,.66s.55,1.1,.55,1.98v3.85h0Z" style="fill: #1667b1;"/>
    <path d="M218.1,190.81h-.99v-.99h0c-.44,.77-1.1,1.1-1.98,1.1-.66,0-1.1-.11-1.54-.55-.33-.33-.55-.77-.55-1.32,0-1.21,.66-1.87,2.09-2.09l1.87-.22c0-1.1-.44-1.65-1.32-1.65-.77,0-1.43,.22-2.09,.77v-.99c.66-.44,1.32-.55,2.2-.55,1.54,0,2.2,.77,2.2,2.42l.11,4.07h0Zm-.99-3.19l-1.54,.22c-.44,.11-.88,.22-1.1,.33s-.33,.44-.33,.88c0,.33,.11,.55,.33,.77s.55,.33,.88,.33c.55,0,.88-.22,1.21-.55s.44-.77,.44-1.32l.11-.66h0Z" style="fill: #1667b1;"/>
    <path d="M220.41,191.03c-.22,0-.33-.11-.44-.22s-.22-.33-.22-.44,.11-.33,.22-.44,.33-.22,.44-.22,.33,.11,.44,.22,.22,.33,.22,.44-.11,.33-.22,.44-.22,.22-.44,.22Z" style="fill: #1667b1;"/>
  </g>
  <g>
    <path d="M42.19,220.96h-1.05v-8.53h1.05v8.53Z" style="fill: #1667b1;"/>
    <path d="M49.35,220.96h-.95v-3.47c0-1.26-.53-1.89-1.37-1.89-.53,0-.84,.21-1.26,.53-.32,.42-.53,.84-.53,1.37v3.47h-.95v-6.11h.95v1.05h0c.42-.74,1.16-1.16,2-1.16,.63,0,1.16,.21,1.58,.63s.53,1.05,.53,1.89v3.68h0Z" style="fill: #1667b1;"/>
    <path d="M51.77,213.27c-.21,0-.32-.11-.42-.21s-.21-.32-.21-.42,.11-.32,.21-.42c.11-.11,.32-.21,.42-.21s.32,.11,.42,.21c.11,.11,.21,.32,.21,.42s-.11,.32-.21,.42-.32,.21-.42,.21Zm.42,7.68h-.95v-6.11h.95v6.11Z" style="fill: #1667b1;"/>
    <path d="M58.3,220.64c-.42,.32-1.05,.42-1.68,.42-.84,0-1.58-.32-2.11-.84s-.84-1.26-.84-2.21,.32-1.79,.84-2.42,1.37-.95,2.32-.95c.53,0,1.05,.11,1.37,.32v.95c-.42-.32-.95-.42-1.47-.42-.63,0-1.16,.21-1.58,.63-.42,.42-.63,1.05-.63,1.79s.21,1.26,.53,1.68c.42,.42,.84,.63,1.47,.63,.53,0,1.05-.21,1.47-.53l.32,.95h0Z" style="fill: #1667b1;"/>
    <path d="M60.3,213.27c-.21,0-.32-.11-.42-.21s-.21-.32-.21-.42,.11-.32,.21-.42c.11-.11,.32-.21,.42-.21s.32,.11,.42,.21c.11,.11,.21,.32,.21,.42s-.11,.32-.21,.42-.21,.21-.42,.21Zm.42,7.68h-.95v-6.11h.95v6.11Z" style="fill: #1667b1;"/>
    <path d="M67.14,220.96h-.95v-.95h0c-.42,.74-1.05,1.05-1.89,1.05-.63,0-1.05-.11-1.37-.53-.32-.32-.53-.74-.53-1.26,0-1.16,.63-1.79,2-2l1.79-.21c0-1.05-.42-1.58-1.26-1.58-.74,0-1.37,.21-2,.74v-.95c.63-.42,1.26-.53,2.11-.53,1.47,0,2.11,.74,2.11,2.32v3.89h0Zm-1.05-3.05l-1.47,.21c-.42,.11-.84,.21-1.05,.32s-.32,.42-.32,.84c0,.32,.11,.53,.32,.74,.21,.21,.53,.32,.84,.32,.53,0,.84-.21,1.16-.53s.42-.74,.42-1.26l.11-.63h0Z" style="fill: #1667b1;"/>
    <path d="M72.09,215.8c-.21-.11-.42-.21-.74-.21-.42,0-.74,.21-1.05,.63-.32,.42-.42,.95-.42,1.58v3.05h-.95v-6h.95v1.26h0c.11-.42,.32-.74,.63-.95s.63-.32,.95-.32c.21,0,.42,0,.63,.11v.84h0Z" style="fill: #1667b1;"/>
    <path d="M76.19,220.75v-1.05c.53,.42,1.16,.63,1.79,.63,.84,0,1.26-.32,1.26-.84,0-.11,0-.32-.11-.42-.11-.11-.21-.21-.32-.32-.11-.11-.32-.21-.42-.21s-.32-.11-.53-.21c-.32-.11-.53-.21-.74-.32s-.42-.21-.53-.42-.21-.32-.32-.42-.11-.42-.11-.63c0-.32,.11-.53,.21-.74s.32-.42,.53-.53,.42-.21,.74-.32,.53-.11,.84-.11c.53,0,.95,.11,1.37,.32v.95c-.42-.32-.95-.42-1.58-.42-.21,0-.32,0-.53,.11s-.32,.11-.42,.21c-.11,.11-.21,.21-.21,.32-.11,.11-.11,.21-.11,.32s0,.32,.11,.42,.11,.21,.21,.32,.21,.11,.42,.21,.32,.11,.53,.21c.32,.11,.53,.21,.74,.32s.42,.21,.53,.42,.21,.32,.32,.42,.11,.42,.11,.63c0,.32-.11,.53-.21,.84-.11,.32-.32,.42-.53,.53s-.42,.21-.74,.32c-.32,.11-.63,.11-.95,.11-.42-.32-.95-.42-1.37-.63h0Z" style="fill: #1667b1;"/>
    <path d="M86.61,218.12h-4.32c0,.63,.21,1.16,.53,1.58s.84,.53,1.47,.53c.74,0,1.26-.21,1.89-.63v.95c-.53,.42-1.26,.63-2.11,.63s-1.58-.32-2-.84c-.53-.53-.74-1.37-.74-2.32s.21-1.68,.84-2.32c.53-.63,1.16-.95,2-.95s1.37,.21,1.89,.74,.63,1.26,.63,2.11l-.11,.53h0Zm-1.05-.84c0-.53-.11-.95-.42-1.26s-.63-.42-1.16-.42-.84,.21-1.16,.53c-.32,.32-.53,.74-.63,1.26,.11-.11,3.37-.11,3.37-.11Z" style="fill: #1667b1;"/>
    <path d="M87.67,220.75v-1.05c.53,.42,1.16,.63,1.79,.63,.84,0,1.26-.32,1.26-.84,0-.11,0-.32-.11-.42-.11-.11-.21-.21-.32-.32-.11-.11-.32-.21-.42-.21s-.32-.11-.53-.21c-.32-.11-.53-.21-.74-.32s-.42-.21-.53-.42-.21-.32-.32-.42-.11-.42-.11-.63c0-.32,.11-.53,.21-.74s.32-.42,.53-.53,.42-.21,.74-.32,.53-.11,.84-.11c.53,0,.95,.11,1.37,.32v.95c-.42-.32-.95-.42-1.58-.42-.21,0-.32,0-.53,.11s-.32,.11-.42,.21c-.11,.11-.21,.21-.21,.32-.11,.11-.11,.21-.11,.32s0,.32,.11,.42,.11,.21,.21,.32,.21,.11,.42,.21,.32,.11,.53,.21c.32,.11,.53,.21,.74,.32s.42,.21,.53,.42,.21,.32,.32,.42,.11,.42,.11,.63c0,.32-.11,.53-.21,.84-.11,.32-.32,.42-.53,.53s-.42,.21-.74,.32c-.32,.11-.63,.11-.95,.11-.32-.32-.95-.42-1.37-.63h0Z" style="fill: #1667b1;"/>
    <path d="M93.67,213.27c-.21,0-.32-.11-.42-.21s-.21-.32-.21-.42,.11-.32,.21-.42c.11-.11,.32-.21,.42-.21s.32,.11,.42,.21c.11,.11,.21,.32,.21,.42s-.11,.32-.21,.42-.21,.21-.42,.21Zm.53,7.68h-.95v-6.11h.95v6.11Z" style="fill: #1667b1;"/>
    <path d="M98.72,221.06c-.84,0-1.58-.32-2.21-.84s-.84-1.37-.84-2.21c0-1.05,.32-1.79,.84-2.42s1.26-.84,2.32-.84,1.58,.32,2.11,.84,.74,1.37,.74,2.32-.32,1.79-.84,2.32c-.53,.53-1.16,.84-2.11,.84h0Zm0-5.58c-.63,0-1.16,.21-1.47,.63-.32,.42-.53,1.05-.53,1.79s.21,1.26,.53,1.68c.32,.42,.84,.63,1.47,.63s1.16-.21,1.47-.63,.53-.95,.53-1.68-.21-1.37-.53-1.79-.84-.63-1.47-.63Zm1.47-3.68l-1.58,2h-.74l1.37-2s.95,0,.95,0Z" style="fill: #1667b1;"/>
    <path d="M108.3,220.96h-.95v-3.47c0-1.26-.42-1.89-1.37-1.89-.53,0-.84,.21-1.26,.53s-.42,.84-.42,1.37v3.47h-.95v-6.11h.95v1.05h0c.42-.74,1.16-1.16,2-1.16,.63,0,1.16,.21,1.47,.63,.32,.42,.53,1.05,.53,1.89v3.68h0Z" style="fill: #1667b1;"/>
    <path d="M117.67,220.64c-.42,.32-1.05,.42-1.68,.42-.84,0-1.58-.32-2.11-.84s-.84-1.26-.84-2.21,.32-1.79,.84-2.42,1.37-.95,2.32-.95c.53,0,1.05,.11,1.37,.32v.95c-.42-.32-.95-.42-1.47-.42-.63,0-1.16,.21-1.47,.63-.42,.42-.63,1.05-.63,1.79s.21,1.26,.53,1.68c.42,.42,.84,.63,1.47,.63,.53,0,1.05-.21,1.47-.53l.21,.95h0Z" style="fill: #1667b1;"/>
    <path d="M121.67,221.06c-.84,0-1.58-.32-2.21-.84s-.84-1.37-.84-2.21c0-1.05,.32-1.79,.84-2.42s1.26-.84,2.32-.84,1.58,.32,2.11,.84,.74,1.37,.74,2.32-.32,1.79-.84,2.32c-.53,.53-1.16,.84-2.11,.84h0Zm.11-5.58c-.63,0-1.16,.21-1.47,.63-.32,.42-.53,1.05-.53,1.79s.21,1.26,.53,1.68c.32,.42,.84,.63,1.47,.63s1.16-.21,1.47-.63,.53-.95,.53-1.68-.21-1.37-.53-1.79-.84-.63-1.47-.63Z" style="fill: #1667b1;"/>
    <path d="M131.35,220.96h-.95v-3.47c0-1.26-.42-1.89-1.37-1.89-.53,0-.95,.21-1.16,.53-.32,.42-.42,.84-.42,1.37v3.47h-.95v-6.11h.95v1.05h0c.42-.74,1.16-1.16,2-1.16,.63,0,1.16,.21,1.47,.63s.53,1.05,.53,1.89l-.11,3.68h0Z" style="fill: #1667b1;"/>
    <path d="M141.46,220.96h-.95v-.95h0c-.42,.74-1.05,1.16-1.89,1.16-1.47,0-2.21-.84-2.21-2.63v-3.68h.95v3.47c0,1.26,.53,1.89,1.47,1.89,.42,0,.84-.21,1.16-.53s.42-.84,.42-1.37v-3.47h.95l.11,6.11h0Z" style="fill: #1667b1;"/>
    <path d="M148.4,220.96h-.95v-3.47c0-1.26-.42-1.89-1.37-1.89-.53,0-.95,.21-1.16,.53-.32,.42-.42,.84-.42,1.37v3.47h-.95v-6.11h.95v1.05h0c.42-.74,1.16-1.16,2-1.16,.63,0,1.16,.21,1.47,.63s.53,1.05,.53,1.89l-.11,3.68h0Z" style="fill: #1667b1;"/>
    <path d="M154.61,220.96h-.95v-.95h0c-.42,.74-1.05,1.05-1.89,1.05-.63,0-1.05-.11-1.47-.53-.32-.32-.53-.74-.53-1.26,0-1.16,.63-1.79,2-2l1.79-.21c0-1.05-.42-1.58-1.26-1.58-.74,0-1.37,.21-2,.74v-.95c.63-.42,1.26-.53,2.11-.53,1.47,0,2.11,.74,2.11,2.32l.11,3.89h0Zm-.95-3.05l-1.47,.21c-.42,.11-.84,.21-1.05,.32s-.32,.42-.32,.84c0,.32,.11,.53,.32,.74,.21,.21,.53,.32,.84,.32,.53,0,.84-.21,1.16-.53s.42-.74,.42-1.26l.11-.63h0Z" style="fill: #1667b1;"/>
    <path d="M160.72,220.96h-.95v-9.05h.95v9.05Z" style="fill: #1667b1;"/>
    <path d="M163.67,220.96h-.95v-9.05h.95v9.05Z" style="fill: #1667b1;"/>
    <path d="M170.09,220.96h-1.05v-.95h0c-.42,.74-1.05,1.05-1.89,1.05-.63,0-1.05-.11-1.47-.53-.32-.32-.53-.74-.53-1.26,0-1.16,.63-1.79,2-2l1.79-.21c0-1.05-.42-1.58-1.26-1.58-.74,0-1.37,.21-2,.74v-.95c.63-.42,1.26-.53,2.11-.53,1.47,0,2.11,.74,2.11,2.32l.21,3.89h0Zm-1.05-3.05l-1.47,.21c-.42,.11-.84,.21-1.05,.32s-.32,.42-.32,.84c0,.32,.11,.53,.32,.74,.21,.21,.53,.32,.84,.32,.53,0,.84-.21,1.16-.53s.42-.74,.42-1.26l.11-.63h0Z" style="fill: #1667b1;"/>
    <path d="M176.61,214.85l-2.42,6.11h-.95l-2.32-6.11h1.05l1.58,4.42c.11,.32,.21,.63,.21,.84h0c0-.32,.11-.63,.21-.84l1.58-4.42h1.05Z" style="fill: #1667b1;"/>
    <path d="M182.61,218.12h-4.32c0,.63,.21,1.16,.53,1.58s.84,.53,1.47,.53,1.26-.21,1.89-.63v.95c-.53,.42-1.26,.63-2.11,.63s-1.58-.32-2-.84c-.53-.53-.74-1.37-.74-2.32s.21-1.68,.84-2.32c.53-.63,1.16-.95,2-.95s1.37,.21,1.89,.74,.63,1.26,.63,2.11l-.11,.53h0Zm-1.05-.84c0-.53-.11-.95-.42-1.26s-.63-.42-1.16-.42-.84,.21-1.16,.53-.53,.74-.63,1.26h3.37v-.11h0Z" style="fill: #1667b1;"/>
    <path d="M192.61,220.96h-.95v-1.05h0c-.42,.84-1.16,1.16-2.11,1.16-.74,0-1.37-.32-1.79-.84s-.63-1.26-.63-2.21c0-1.05,.21-1.79,.74-2.42s1.16-.95,2-.95,1.47,.32,1.79,.95h0v-3.79h.95v9.16h0Zm-.95-2.74v-.95c0-.53-.11-.95-.53-1.26s-.74-.53-1.26-.53c-.63,0-1.05,.21-1.37,.63s-.53,1.05-.53,1.79,.21,1.26,.53,1.68,.74,.63,1.26,.63,.95-.21,1.37-.63c.32-.32,.53-.84,.53-1.37h0Z" style="fill: #1667b1;"/>
    <path d="M199.46,218.12h-4.32c0,.63,.21,1.16,.53,1.58s.84,.53,1.47,.53,1.26-.21,1.89-.63v.95c-.53,.42-1.26,.63-2.11,.63s-1.58-.32-2-.84c-.53-.53-.74-1.37-.74-2.32s.21-1.68,.84-2.32c.53-.63,1.16-.95,2-.95s1.37,.21,1.89,.74,.63,1.26,.63,2.11l-.11,.53h0Zm-.95-.84c0-.53-.11-.95-.42-1.26s-.63-.42-1.16-.42-.84,.21-1.16,.53-.53,.74-.63,1.26h3.37v-.11h0Z" style="fill: #1667b1;"/>
    <path d="M203.88,220.75v-1.05c.53,.42,1.16,.63,1.79,.63,.84,0,1.26-.32,1.26-.84,0-.11,0-.32-.11-.42l-.32-.32c-.11-.11-.32-.21-.42-.21s-.32-.11-.53-.21c-.32-.11-.53-.21-.74-.32s-.42-.21-.53-.42-.21-.32-.32-.42-.11-.42-.11-.63c0-.32,.11-.53,.21-.74,.11-.21,.32-.42,.53-.53s.42-.21,.74-.32,.53-.11,.84-.11c.53,0,.95,.11,1.37,.32v.95c-.42-.32-.95-.42-1.58-.42-.21,0-.32,0-.53,.11s-.32,.11-.42,.21-.21,.21-.21,.32c-.11,.11-.11,.21-.11,.32s0,.32,.11,.42,.11,.21,.21,.32c.11,.11,.21,.11,.42,.21s.32,.11,.53,.21c.32,.11,.53,.21,.74,.32s.42,.21,.53,.42,.21,.32,.32,.42,.11,.42,.11,.63c0,.32-.11,.53-.21,.84-.11,.32-.32,.42-.53,.53s-.42,.21-.74,.32-.63,.11-.95,.11c-.32-.32-.84-.42-1.37-.63h0Z" style="fill: #1667b1;"/>
    <path d="M214.3,218.12h-4.21c0,.63,.21,1.16,.53,1.58s.84,.53,1.47,.53,1.26-.21,1.89-.63v.95c-.53,.42-1.26,.63-2.11,.63s-1.58-.32-2-.84c-.53-.53-.74-1.37-.74-2.32s.21-1.68,.84-2.32c.53-.63,1.16-.95,2-.95s1.37,.21,1.89,.74,.63,1.26,.63,2.11l-.21,.53h0Zm-.95-.84c0-.53-.11-.95-.42-1.26s-.63-.42-1.16-.42-.84,.21-1.16,.53-.53,.74-.63,1.26h3.37v-.11h0Z" style="fill: #1667b1;"/>
    <path d="M221.03,220.43c0,2.21-1.05,3.37-3.26,3.37-.74,0-1.37-.11-2-.42v-.95c.63,.42,1.37,.53,2,.53,1.47,0,2.21-.84,2.21-2.42v-.63h0c-.42,.74-1.16,1.16-2.11,1.16-.74,0-1.37-.32-1.79-.84s-.74-1.26-.74-2.21c0-1.05,.21-1.89,.74-2.42s1.16-.95,2-.95,1.47,.32,1.79,.95h0v-.74h.95l.21,5.58h0Zm-1.05-2.21v-.95c0-.53-.21-.95-.53-1.26s-.74-.53-1.26-.53c-.63,0-1.05,.21-1.37,.63-.32,.42-.53,1.05-.53,1.89,0,.63,.21,1.26,.53,1.58,.32,.42,.74,.63,1.26,.63s.95-.21,1.37-.63c.42-.32,.53-.74,.53-1.37h0Z" style="fill: #1667b1;"/>
    <path d="M227.88,220.96h-.95v-.95h0c-.42,.74-1.05,1.16-1.89,1.16-1.47,0-2.21-.84-2.21-2.63v-3.68h.95v3.47c0,1.26,.53,1.89,1.47,1.89,.42,0,.84-.21,1.16-.53s.42-.84,.42-1.37v-3.47h.95l.11,6.11h0Z" style="fill: #1667b1;"/>
    <path d="M233.03,215.8c-.21-.11-.42-.21-.74-.21-.42,0-.74,.21-1.05,.63-.32,.42-.42,.95-.42,1.58v3.05h-.95v-6h.95v1.26h0c.11-.42,.32-.74,.63-.95s.63-.32,.95-.32c.21,0,.42,0,.63,.11v.84h0Z" style="fill: #1667b1;"/>
    <path d="M234.61,213.27c-.21,0-.32-.11-.42-.21s-.21-.32-.21-.42,.11-.32,.21-.42,.32-.21,.42-.21,.32,.11,.42,.21,.21,.32,.21,.42-.11,.32-.21,.42c-.11,.21-.21,.21-.42,.21Zm.42,7.68h-.95v-6.11h.95v6.11Z" style="fill: #1667b1;"/>
    <path d="M242.3,220.96h-.95v-1.05h0c-.42,.84-1.16,1.16-2.11,1.16-.74,0-1.37-.32-1.79-.84s-.63-1.26-.63-2.21c0-1.05,.21-1.79,.74-2.42s1.16-.95,2-.95,1.47,.32,1.79,.95h0v-3.79h.95v9.16h0Zm-1.05-2.74v-.95c0-.53-.11-.95-.53-1.26s-.74-.53-1.26-.53c-.63,0-1.05,.21-1.37,.63-.32,.42-.53,1.05-.53,1.79s.21,1.26,.53,1.68,.74,.63,1.26,.63,.95-.21,1.37-.63c.42-.32,.53-.84,.53-1.37h0Z" style="fill: #1667b1;"/>
    <path d="M248.61,220.96h-.95v-.95h0c-.42,.74-1.05,1.05-1.89,1.05-.63,0-1.05-.11-1.47-.53-.32-.32-.53-.74-.53-1.26,0-1.16,.63-1.79,2-2l1.79-.21c0-1.05-.42-1.58-1.26-1.58-.74,0-1.37,.21-2,.74v-.95c.63-.42,1.26-.53,2.11-.53,1.47,0,2.11,.74,2.11,2.32l.11,3.89h0Zm-1.05-3.05l-1.47,.21c-.42,.11-.84,.21-1.05,.32s-.32,.42-.32,.84c0,.32,.11,.53,.32,.74,.21,.21,.53,.32,.84,.32,.53,0,.84-.21,1.16-.53s.42-.74,.42-1.26l.11-.63h0Z" style="fill: #1667b1;"/>
    <path d="M255.56,220.96h-.95v-1.05h0c-.42,.84-1.16,1.16-2.11,1.16-.74,0-1.37-.32-1.79-.84s-.63-1.26-.63-2.21c0-1.05,.21-1.79,.74-2.42s1.16-.95,2-.95,1.47,.32,1.79,.95h0v-3.79h.95v9.16h0Zm-.95-2.74v-.95c0-.53-.11-.95-.53-1.26s-.74-.53-1.26-.53c-.63,0-1.05,.21-1.37,.63-.32,.42-.53,1.05-.53,1.79s.21,1.26,.53,1.68,.74,.63,1.26,.63,.95-.21,1.37-.63c.42-.32,.53-.84,.53-1.37h0Z" style="fill: #1667b1;"/>
  </g>
  <line x1="45.5" y1="160" x2="375.1" y2="160" style="fill: none; isolation: isolate; opacity: .6; stroke: #222; stroke-miterlimit: 10; stroke-width: .75px;"/>
  <g>
    <path d="M269.7,218.4c0-.1-.1-.2-.1-.4v-.5c0-.2,0-.5,.1-.7s.2-.4,.4-.6c.1-.2,.3-.4,.5-.5,.2-.2,.3-.3,.5-.5,.1-.2,.3-.3,.4-.5s.1-.4,.1-.6,0-.4-.1-.5-.2-.3-.3-.4c-.1-.1-.3-.2-.4-.2-.2-.1-.3-.1-.5-.1-.7,0-1.2,.3-1.7,.8v-1c.6-.4,1.2-.6,1.9-.6,.3,0,.6,0,.8,.1s.5,.2,.7,.4c.2,.1,.4,.4,.5,.6,.1,.2,.2,.5,.2,.8s0,.6-.1,.8-.2,.4-.4,.6c-.2,.2-.3,.4-.5,.5s-.4,.3-.5,.5-.3,.3-.4,.5-.1,.4-.1,.6,0,.3,.1,.5,.1,.3,.1,.4h-1.2Zm.5,2.5c-.2,0-.3-.1-.5-.2s-.2-.3-.2-.5,.1-.3,.2-.5c.1-.1,.3-.2,.5-.2s.3,.1,.5,.2c.1,.1,.2,.3,.2,.5s-.1,.3-.2,.5-.3,.2-.5,.2Z" style="fill: #737373;"/>
    <circle cx="270.5" cy="216.9" r="6.7" style="fill: none; stroke: #737373; stroke-miterlimit: 10;"/>
  </g>
  <g>
    <path d="M57.91,148.32h-4.44v4.08h4.92v1.2h-6.36v-11.28h6.12v1.2h-4.68v3.6h4.44s0,1.2,0,1.2Z" style="fill: #7c7c7c;"/>
    <path d="M60.19,147.72c0-.84,0-1.56-.12-2.16h1.32l.12,1.32h0c.48-.72,1.2-1.44,2.52-1.44,1.08,0,1.92,.72,2.28,1.68h0c.24-.48,.6-.84,.96-1.08,.48-.36,1.08-.6,1.8-.6,1.08,0,2.64,.72,2.64,3.48v4.8h-1.44v-4.56c0-1.56-.6-2.52-1.8-2.52-.84,0-1.44,.6-1.8,1.32-.12,.24-.12,.48-.12,.72v5.04h-1.44v-4.92c0-1.32-.6-2.28-1.68-2.28-.96,0-1.56,.72-1.8,1.44-.12,.24-.12,.48-.12,.72v4.92h-1.44v-5.88h.12Z" style="fill: #7c7c7c;"/>
    <path d="M78.67,153.6l-.12-1.08h0c-.48,.6-1.32,1.2-2.52,1.2-1.68,0-2.52-1.2-2.52-2.28,0-1.92,1.8-3,4.92-3v-.12c0-.72-.24-1.92-1.8-1.92-.72,0-1.56,.24-2.16,.6l-.36-.96c.72-.48,1.68-.72,2.64-.72,2.52,0,3.12,1.68,3.12,3.36v3c0,.72,0,1.44,.12,1.92,0,0-1.32,0-1.32,0Zm-.12-4.08c-1.56,0-3.48,.24-3.48,1.8,0,.96,.6,1.44,1.44,1.44,1.08,0,1.68-.72,1.92-1.32,0-.12,.12-.36,.12-.48,0,0,0-1.44,0-1.44Z" style="fill: #7c7c7c;"/>
    <path d="M83.95,143.16c0,.48-.36,.96-.96,.96-.48,0-.84-.36-.84-.96,0-.48,.36-.96,.96-.96,.48,.12,.84,.48,.84,.96Zm-1.68,10.44v-8.16h1.44v8.16h-1.44Z" style="fill: #7c7c7c;"/>
    <path d="M86.23,141.72h1.44v11.88h-1.44v-11.88Z" style="fill: #7c7c7c;"/>
  </g>
  <g>
    <path d="M46.21,112.78h-1.8v-15.35h1.8v15.35Z" style="fill: #333;"/>
    <path d="M59.11,112.78h-1.76v-6.25c0-1.16-.21-2.04-.64-2.62-.42-.58-1.06-.87-1.91-.87s-1.6,.33-2.18,.99c-.57,.66-.86,1.49-.86,2.5v6.25h-1.76v-10.96h1.76v1.82h.04c.41-.69,.92-1.21,1.52-1.56,.6-.35,1.29-.52,2.08-.52,1.2,0,2.12,.39,2.75,1.16s.95,1.89,.95,3.36v6.7Z" style="fill: #333;"/>
    <path d="M63.32,99.2c-.36,0-.66-.12-.9-.36s-.36-.53-.36-.88,.12-.64,.36-.88c.24-.24,.54-.36,.9-.36s.66,.12,.9,.36c.24,.24,.36,.53,.36,.88s-.12,.64-.36,.88-.54,.36-.9,.36Zm.86,13.58h-1.76v-10.96h1.76v10.96Z" style="fill: #333;"/>
    <path d="M75.43,112.13c-.51,.31-1.01,.54-1.52,.69-.51,.15-1.06,.22-1.66,.22-1.54,0-2.81-.48-3.79-1.43-.99-.96-1.48-2.31-1.48-4.07s.5-3.23,1.49-4.32c1-1.1,2.36-1.65,4.11-1.65,.56,0,1.1,.07,1.61,.2s1.03,.36,1.55,.66l-.74,1.28c-.41-.23-.81-.4-1.2-.5-.39-.11-.82-.16-1.28-.16-1.21,0-2.13,.4-2.77,1.21-.64,.81-.96,1.83-.96,3.07,0,1.37,.34,2.42,1.01,3.14,.67,.72,1.55,1.08,2.62,1.08,.35,0,.72-.06,1.1-.17,.38-.11,.77-.28,1.15-.52l.78,1.26Z" style="fill: #333;"/>
    <path d="M78.75,99.2c-.36,0-.66-.12-.9-.36s-.36-.53-.36-.88,.12-.64,.36-.88c.24-.24,.54-.36,.9-.36s.66,.12,.9,.36c.24,.24,.36,.53,.36,.88s-.12,.64-.36,.88-.54,.36-.9,.36Zm.86,13.58h-1.76v-10.96h1.76v10.96Z" style="fill: #333;"/>
    <path d="M90.92,112.78h-1.76v-1.71h-.04c-.38,.66-.84,1.15-1.4,1.48-.55,.33-1.2,.49-1.93,.49-1.03,0-1.86-.3-2.49-.9-.64-.6-.95-1.4-.95-2.39,0-.94,.32-1.71,.96-2.32,.64-.61,1.55-1.01,2.73-1.18l3.13-.42v-.25c0-.92-.21-1.58-.64-1.96-.43-.39-1-.58-1.71-.58-.57,0-1.12,.11-1.65,.32-.53,.21-1.02,.54-1.49,.98l-1.03-1.06c.61-.59,1.27-1.03,1.96-1.31,.69-.28,1.46-.42,2.31-.42,1.33,0,2.33,.34,3,1.02s1.01,1.7,1.01,3.07v7.13Zm-1.76-4.45v-1.09l-2.64,.36c-.81,.11-1.41,.32-1.82,.61s-.61,.75-.61,1.38,.19,1.16,.57,1.5c.38,.35,.85,.52,1.4,.52,.95,0,1.7-.31,2.26-.93s.84-1.41,.84-2.35Z" style="fill: #333;"/>
    <path d="M99.72,103.32c-.14-.04-.26-.07-.36-.09-.11-.02-.24-.03-.41-.03-.89,0-1.59,.38-2.11,1.14-.51,.76-.77,1.71-.77,2.85v5.59h-1.76v-10.96h1.76v2.17h.04c.25-.77,.63-1.36,1.15-1.76,.51-.4,1.11-.6,1.78-.6,.22,0,.41,.01,.56,.03,.15,.02,.29,.05,.41,.1l-.29,1.56Z" style="fill: #333;"/>
    <path d="M106.92,111.96l.83-1.35c.48,.31,.95,.55,1.4,.71,.46,.16,.95,.24,1.48,.24,.75,0,1.32-.14,1.71-.42,.39-.28,.58-.7,.58-1.25,0-.45-.17-.83-.52-1.14s-.89-.56-1.62-.74c-1.37-.35-2.31-.79-2.82-1.32s-.76-1.19-.76-1.96c0-.9,.34-1.65,1.02-2.25,.68-.6,1.62-.9,2.84-.9,.58,0,1.14,.08,1.67,.23,.53,.15,1.07,.41,1.62,.77l-.78,1.33c-.5-.31-.95-.53-1.34-.66-.4-.12-.8-.19-1.2-.19-.71,0-1.25,.13-1.62,.39-.37,.26-.56,.64-.56,1.13s.19,.86,.57,1.11c.38,.25,1,.49,1.85,.71,1.11,.3,1.95,.72,2.5,1.26,.55,.54,.83,1.24,.83,2.11,0,1.01-.36,1.81-1.08,2.4-.72,.59-1.7,.88-2.95,.88-.67,0-1.31-.09-1.93-.28s-1.19-.45-1.72-.8Z" style="fill: #333;"/>
    <path d="M126.06,107.7h-7.75c.03,1.23,.35,2.19,.98,2.85,.62,.67,1.5,1,2.63,1,.49,0,.99-.07,1.48-.22,.5-.15,.99-.38,1.47-.7l.81,1.25c-.62,.4-1.24,.69-1.86,.88-.62,.19-1.3,.28-2.04,.28-1.66,0-2.95-.49-3.88-1.48-.93-.98-1.4-2.36-1.4-4.12,0-1.76,.46-3.18,1.4-4.26,.94-1.08,2.16-1.62,3.66-1.62s2.54,.47,3.32,1.4c.79,.93,1.18,2.22,1.18,3.87v.87Zm-1.8-1.43c0-1.01-.25-1.8-.74-2.37s-1.15-.85-2-.85-1.54,.29-2.12,.87c-.58,.58-.94,1.36-1.06,2.35h5.93Z" style="fill: #333;"/>
    <path d="M127.69,111.96l.83-1.35c.48,.31,.95,.55,1.4,.71,.46,.16,.95,.24,1.48,.24,.75,0,1.32-.14,1.71-.42,.39-.28,.58-.7,.58-1.25,0-.45-.17-.83-.52-1.14s-.89-.56-1.62-.74c-1.37-.35-2.31-.79-2.82-1.32s-.76-1.19-.76-1.96c0-.9,.34-1.65,1.02-2.25,.68-.6,1.62-.9,2.84-.9,.58,0,1.14,.08,1.67,.23,.53,.15,1.07,.41,1.62,.77l-.78,1.33c-.5-.31-.95-.53-1.34-.66-.4-.12-.8-.19-1.2-.19-.71,0-1.25,.13-1.62,.39-.37,.26-.56,.64-.56,1.13s.19,.86,.57,1.11c.38,.25,1,.49,1.85,.71,1.11,.3,1.95,.72,2.5,1.26,.55,.54,.83,1.24,.83,2.11,0,1.01-.36,1.81-1.08,2.4-.72,.59-1.7,.88-2.95,.88-.67,0-1.31-.09-1.93-.28s-1.19-.45-1.72-.8Z" style="fill: #333;"/>
    <path d="M138.91,99.2c-.36,0-.66-.12-.9-.36s-.36-.53-.36-.88,.12-.64,.36-.88c.24-.24,.54-.36,.9-.36s.66,.12,.9,.36c.24,.24,.36,.53,.36,.88s-.12,.64-.36,.88-.54,.36-.9,.36Zm.86,13.58h-1.76v-10.96h1.76v10.96Z" style="fill: #333;"/>
    <path d="M147.91,113.04c-1.62,0-2.91-.51-3.88-1.54-.97-1.02-1.45-2.38-1.45-4.07,0-1.83,.5-3.27,1.5-4.3,1-1.03,2.36-1.56,4.09-1.56,1.63,0,2.91,.5,3.83,1.51,.92,1.01,1.38,2.41,1.38,4.19s-.49,3.16-1.48,4.21c-.99,1.05-2.31,1.57-3.98,1.57Zm.13-1.48c1.13,0,2.01-.37,2.62-1.11,.61-.74,.92-1.78,.92-3.13s-.31-2.44-.92-3.17-1.48-1.11-2.61-1.11-2.02,.39-2.68,1.16c-.66,.77-.98,1.83-.98,3.17s.33,2.32,1,3.07c.66,.75,1.55,1.12,2.67,1.12Zm-.05-11.82h-1.36l2.39-3.51h1.78l-2.8,3.51Z" style="fill: #333;"/>
    <path d="M165.27,112.78h-1.76v-6.25c0-1.16-.21-2.04-.64-2.62-.42-.58-1.06-.87-1.91-.87s-1.6,.33-2.18,.99c-.57,.66-.86,1.49-.86,2.5v6.25h-1.76v-10.96h1.76v1.82h.04c.41-.69,.92-1.21,1.52-1.56,.6-.35,1.29-.52,2.08-.52,1.2,0,2.12,.39,2.75,1.16s.95,1.89,.95,3.36v6.7Z" style="fill: #333;"/>
  </g>
  <rect x="272.61" y="276.73" width="102.4" height="28.44" style="fill: #176eaf;"/>
  <g>
    <path d="M302.26,295.32c-.45,.22-.9,.38-1.33,.48s-.9,.15-1.41,.15c-1.42,0-2.53-.43-3.31-1.29s-1.18-1.99-1.18-3.39c0-1.53,.44-2.76,1.32-3.67s2.03-1.37,3.45-1.37c.44,0,.86,.04,1.24,.12s.79,.22,1.2,.4l-.41,.9c-.35-.15-.68-.26-1-.33s-.67-.1-1.05-.1c-1.1,0-1.98,.36-2.63,1.07s-.97,1.68-.97,2.91c0,1.15,.31,2.06,.93,2.74s1.45,1.02,2.48,1.02c.38,0,.75-.04,1.12-.12s.74-.22,1.12-.41l.44,.89Z" style="fill: #fff;"/>
    <path d="M306.61,295.95c-.99,0-1.78-.31-2.38-.94s-.89-1.46-.89-2.5c0-1.12,.31-2,.92-2.64s1.45-.95,2.5-.96c1,0,1.78,.3,2.34,.92s.84,1.48,.84,2.56-.3,1.93-.91,2.58-1.42,.96-2.44,.96Zm.08-.9c.7,0,1.23-.23,1.6-.68s.56-1.09,.56-1.92-.19-1.49-.56-1.94-.91-.68-1.6-.68-1.24,.24-1.64,.71-.6,1.12-.6,1.94,.2,1.42,.61,1.88,.95,.69,1.63,.69Z" style="fill: #fff;"/>
    <path d="M317.25,295.79h-1.08v-3.83c0-.71-.13-1.25-.39-1.6s-.65-.53-1.17-.53-.98,.2-1.33,.61-.53,.91-.53,1.53v3.83h-1.08v-6.71h1.08v1.11h.03c.25-.42,.56-.74,.93-.95s.79-.32,1.27-.32c.73,0,1.3,.24,1.69,.71s.58,1.16,.58,2.06v4.1Z" style="fill: #fff;"/>
    <path d="M322.48,295.71c-.18,.07-.36,.13-.54,.17s-.38,.06-.6,.06c-.53,0-.95-.16-1.26-.47s-.46-.77-.46-1.39v-4.09h-1.15v-.92h1.15v-1.64l1.08-.35v1.99h1.69v.92h-1.69v3.96c0,.38,.07,.66,.21,.83s.34,.26,.62,.26c.13,0,.26-.02,.38-.05s.23-.07,.31-.1l.26,.82Z" style="fill: #fff;"/>
    <path d="M324.38,287.47c-.22,0-.4-.07-.55-.22s-.22-.33-.22-.54,.07-.39,.22-.54,.33-.22,.55-.22,.4,.07,.55,.22,.22,.33,.22,.54-.07,.39-.22,.54-.33,.22-.55,.22Zm.52,8.32h-1.08v-6.71h1.08v6.71Z" style="fill: #fff;"/>
    <path d="M332.65,295.79h-1.08v-3.83c0-.71-.13-1.25-.39-1.6s-.65-.53-1.17-.53-.98,.2-1.33,.61-.53,.91-.53,1.53v3.83h-1.08v-6.71h1.08v1.11h.03c.25-.42,.56-.74,.93-.95s.79-.32,1.27-.32c.73,0,1.3,.24,1.69,.71s.58,1.16,.58,2.06v4.1Z" style="fill: #fff;"/>
    <path d="M340.11,295.79h-1.08v-1.06h-.03c-.22,.41-.51,.71-.85,.91s-.75,.3-1.22,.3c-.8,0-1.4-.24-1.8-.71s-.6-1.19-.6-2.14v-4.01h1.07v3.84c0,.71,.14,1.24,.41,1.59s.68,.53,1.22,.53,.96-.19,1.3-.58,.51-.89,.51-1.52v-3.87h1.08v6.71Z" style="fill: #fff;"/>
    <path d="M347.03,295.79h-1.08v-1.05h-.03c-.23,.4-.52,.7-.86,.9s-.73,.3-1.18,.3c-.63,0-1.14-.18-1.53-.55s-.58-.85-.58-1.46c0-.57,.2-1.05,.59-1.42s.95-.62,1.67-.72l1.91-.26v-.15c0-.56-.13-.97-.39-1.2s-.61-.36-1.05-.36c-.35,0-.69,.07-1.01,.2s-.63,.33-.91,.6l-.63-.65c.38-.36,.78-.63,1.2-.8s.9-.26,1.42-.26c.81,0,1.43,.21,1.84,.63s.62,1.04,.62,1.88v4.37Zm-1.08-2.73v-.67l-1.62,.22c-.49,.07-.87,.19-1.11,.37s-.37,.46-.37,.85,.12,.71,.35,.92,.52,.32,.86,.32c.58,0,1.04-.19,1.39-.57s.51-.86,.51-1.44Z" style="fill: #fff;"/>
    <path d="M352.42,289.99c-.08-.03-.16-.04-.22-.06s-.15-.02-.25-.02c-.55,0-.98,.23-1.29,.7s-.47,1.05-.47,1.75v3.42h-1.08v-6.71h1.08v1.33h.03c.15-.47,.39-.83,.7-1.08s.68-.37,1.09-.37c.14,0,.25,0,.34,.02s.18,.03,.25,.06l-.18,.96Z" style="fill: #fff;"/>
  </g>
</svg>