<?xml version="1.0" encoding="UTF-8"?>
<svg id="Layer_1" data-name="Layer 1" xmlns="http://www.w3.org/2000/svg" viewBox="0 0 420 322.4">
  <rect x="-6" y="-15.33" width="432" height="356" style="fill: #fff;"/>
  <path d="M42.4,40h25.2v25.2h-25.2s0-25.2,0-25.2Z" style="fill: #fff;"/>
  <path d="M43.5,41.1h11v11h-11v-11Z" style="fill: #e24e3c;"/>
  <path d="M55.6,41.1h11v11h-11v-11Z" style="fill: #87bc2a;"/>
  <path d="M43.5,53.2h11v10.9h-11s0-10.9,0-10.9Z" style="fill: #37a9db;"/>
  <path d="M55.6,53.2h11v10.9h-11s0-10.9,0-10.9Z" style="fill: #f4b019;"/>
  <g>
    <path d="M85.5,60.3h-2v-8c0-.7,0-1.5,.1-2.4h0c-.1,.5-.2,.9-.3,1.2l-3.7,9.2h-1.4l-3.7-9.1c-.1-.3-.2-.7-.3-1.2h0c.1,.5,.1,1.3,.1,2.4v8h-1.9v-12.5h2.9l3.2,8.2c.2,.6,.4,1.1,.5,1.4h0c.2-.7,.4-1.1,.5-1.4l3.3-8.2h2.8l-.1,12.4h0Z" style="fill: #767676;"/>
    <path d="M89.4,49.6c-.3,0-.6-.1-.8-.3s-.3-.5-.3-.8,.1-.6,.3-.8c.2-.2,.5-.3,.8-.3s.6,.1,.9,.3c.2,.2,.3,.5,.3,.8s-.1,.6-.3,.8c-.3,.2-.6,.3-.9,.3h0Zm.9,10.7h-2v-8.8h2v8.8Z" style="fill: #767676;"/>
    <path d="M99.2,59.9c-.7,.4-1.5,.6-2.5,.6-1.3,0-2.4-.4-3.2-1.2s-1.2-1.9-1.2-3.2c0-1.5,.4-2.6,1.3-3.5s2-1.3,3.5-1.3c.8,0,1.5,.1,2.1,.4v1.9c-.6-.5-1.3-.7-2-.7-.8,0-1.5,.3-2.1,.8-.5,.6-.8,1.3-.8,2.2s.2,1.6,.8,2.2,1.2,.8,2,.8c.7,0,1.4-.2,2-.8l.1,1.8h0Z" style="fill: #767676;"/>
    <path d="M106.3,53.4c-.2-.2-.6-.3-1-.3-.6,0-1.1,.3-1.5,.8s-.6,1.3-.6,2.2v4.2h-2v-8.8h2v1.8h0c.2-.6,.5-1.1,.9-1.5s.8-.5,1.3-.5c.4,0,.6,0,.8,.2l.1,1.9h0Z" style="fill: #767676;"/>
    <path d="M111.5,60.5c-1.4,0-2.4-.4-3.2-1.2s-1.3-2-1.3-3.3c0-1.5,.4-2.6,1.3-3.5s2-1.2,3.4-1.2,2.4,.4,3.2,1.2,1.2,1.9,1.2,3.4-.4,2.5-1.2,3.4-2,1.2-3.4,1.2Zm.1-7.6c-.8,0-1.4,.3-1.8,.8s-.7,1.3-.7,2.2,.2,1.7,.7,2.2,1.1,.8,1.8,.8,1.4-.3,1.8-.8,.6-1.3,.6-2.2-.2-1.7-.6-2.2-1-.8-1.8-.8Z" style="fill: #767676;"/>
    <path d="M117.5,60v-1.8c.7,.6,1.6,.8,2.5,.8,1.2,0,1.8-.3,1.8-1.1,0-.2-.1-.4-.2-.5s-.2-.3-.4-.4l-.6-.3c-.2-.1-.5-.2-.8-.3-.4-.1-.7-.3-1-.5s-.5-.3-.7-.5-.3-.4-.4-.7-.2-.6-.2-.9c0-.4,.1-.8,.3-1.1,.2-.3,.5-.6,.8-.8s.7-.4,1.2-.5,.9-.2,1.3-.2c.8,0,1.5,.1,2.2,.4v1.7c-.6-.4-1.3-.6-2.1-.6-.2,0-.5,0-.7,.1-.2,0-.4,.1-.5,.2s-.3,.2-.3,.3-.1,.3-.1,.4c0,.2,0,.3,.1,.5s.2,.2,.4,.3,.3,.2,.6,.3,.5,.2,.8,.3c.4,.2,.7,.3,1,.5s.6,.3,.8,.5c.2,.2,.4,.4,.5,.7s.2,.6,.2,1c0,.5-.1,.8-.3,1.2-.2,.3-.5,.6-.8,.8s-.7,.4-1.2,.5-.9,.2-1.4,.2c-1.2,0-2.1-.2-2.8-.5h0Z" style="fill: #767676;"/>
    <path d="M129.6,60.5c-1.4,0-2.4-.4-3.2-1.2s-1.2-1.9-1.2-3.3c0-1.5,.4-2.6,1.3-3.5s2-1.2,3.4-1.2,2.4,.4,3.2,1.2,1.1,1.9,1.1,3.4-.4,2.5-1.2,3.4-2,1.2-3.4,1.2h0Zm.1-7.6c-.8,0-1.4,.3-1.8,.8-.4,.5-.7,1.3-.7,2.2s.2,1.7,.7,2.2,1.1,.8,1.8,.8,1.4-.3,1.8-.8,.6-1.3,.6-2.2-.2-1.7-.6-2.2-1.1-.8-1.8-.8Z" style="fill: #767676;"/>
    <path d="M140.9,48.9c-.3-.2-.6-.2-.9-.2-1,0-1.4,.5-1.4,1.6v1.2h2v1.5h-2v7.2h-2v-7.2h-1.6v-1.6h1.5v-1.4c0-.9,.3-1.7,.9-2.2s1.4-.8,2.3-.8c.5,0,.9,0,1.2,.2v1.7h0Z" style="fill: #767676;"/>
    <path d="M146.9,60.2c-.4,.2-.9,.3-1.5,.3-1.7,0-2.6-.8-2.6-2.5v-5h-1.5v-1.6h1.5v-2l2-.6v2.6h2.1v1.6h-2.1v4.4c0,.5,.1,.9,.3,1.1,.2,.2,.5,.3,.9,.3,.3,0,.6-.1,.9-.3v1.7h0Z" style="fill: #767676;"/>
  </g>
  <line x1="44.7" y1="185.9" x2="374.3" y2="185.9" style="fill: none; isolation: isolate; opacity: .6; stroke: #222; stroke-miterlimit: 10; stroke-width: .75px;"/>
  <g>
    <path d="M53.96,138.45h-7.42v-14h7.11v1.48h-5.47v4.66h5.06v1.47h-5.06v4.9h5.78v1.48Z" style="fill: #333;"/>
    <path d="M55.5,137.69l.76-1.23c.44,.29,.86,.5,1.28,.65s.87,.22,1.35,.22c.68,0,1.2-.13,1.56-.38s.53-.63,.53-1.14c0-.41-.16-.76-.47-1.04s-.81-.51-1.48-.68c-1.25-.32-2.11-.72-2.57-1.21s-.69-1.08-.69-1.79c0-.82,.31-1.51,.93-2.06s1.48-.83,2.59-.83c.53,0,1.04,.07,1.52,.21s.97,.37,1.47,.7l-.71,1.21c-.46-.29-.86-.49-1.23-.6s-.73-.17-1.1-.17c-.64,0-1.14,.12-1.47,.36s-.51,.58-.51,1.03,.17,.79,.52,1.02,.91,.44,1.68,.64c1.02,.27,1.78,.66,2.28,1.15s.76,1.13,.76,1.93c0,.92-.33,1.66-.98,2.19s-1.55,.81-2.69,.81c-.61,0-1.2-.08-1.76-.25s-1.09-.41-1.57-.73Z" style="fill: #333;"/>
    <path d="M71.96,137.85c-.46,.29-.92,.5-1.39,.63s-.97,.2-1.51,.2c-1.41,0-2.56-.44-3.46-1.31s-1.35-2.11-1.35-3.71,.45-2.94,1.36-3.95,2.16-1.5,3.75-1.5c.51,0,1,.06,1.47,.19s.94,.33,1.41,.61l-.67,1.17c-.37-.21-.74-.36-1.09-.46s-.75-.15-1.17-.15c-1.1,0-1.94,.37-2.53,1.1s-.88,1.67-.88,2.8c0,1.25,.31,2.2,.92,2.86s1.41,.99,2.39,.99c.32,0,.65-.05,1-.15s.7-.26,1.05-.47l.71,1.15Z" style="fill: #333;"/>
    <path d="M79.09,129.81c-.12-.04-.23-.07-.33-.08s-.22-.02-.37-.02c-.81,0-1.46,.35-1.92,1.04s-.7,1.56-.7,2.6v5.1h-1.6v-10h1.6v1.98h.04c.23-.7,.58-1.24,1.04-1.61s1.01-.55,1.62-.55c.2,0,.37,0,.51,.03s.27,.05,.38,.09l-.26,1.43Z" style="fill: #333;"/>
    <path d="M81.94,126.05c-.33,0-.6-.11-.82-.33s-.33-.49-.33-.81,.11-.59,.33-.81,.5-.33,.82-.33,.6,.11,.82,.33,.33,.49,.33,.81-.11,.59-.33,.81-.5,.33-.82,.33Zm.78,12.39h-1.6v-10h1.6v10Z" style="fill: #333;"/>
    <path d="M87.6,137.16h-.04v1.29h-1.6v-14.8h1.6v6.56h.04c.4-.66,.88-1.16,1.46-1.49s1.24-.5,2-.5c1.28,0,2.29,.45,3.01,1.34s1.09,2.09,1.09,3.6c0,1.67-.41,3.01-1.22,4.02s-1.93,1.51-3.34,1.51c-.66,0-1.24-.13-1.74-.38s-.92-.63-1.26-1.14Zm-.04-4.19v1.4c0,.83,.27,1.53,.81,2.1s1.22,.86,2.05,.86c.97,0,1.73-.37,2.28-1.11s.83-1.77,.83-3.1c0-1.11-.26-1.99-.77-2.62s-1.21-.95-2.09-.95c-.93,0-1.68,.32-2.25,.97s-.85,1.46-.85,2.44Z" style="fill: #333;"/>
    <path d="M98.54,126.05c-.33,0-.6-.11-.82-.33s-.33-.49-.33-.81,.11-.59,.33-.81,.5-.33,.82-.33,.6,.11,.82,.33,.33,.49,.33,.81-.11,.59-.33,.81-.5,.33-.82,.33Zm.78,12.39h-1.6v-10h1.6v10Z" style="fill: #333;"/>
    <path d="M107.49,129.81c-.12-.04-.23-.07-.33-.08s-.22-.02-.37-.02c-.81,0-1.46,.35-1.92,1.04s-.7,1.56-.7,2.6v5.1h-1.6v-10h1.6v1.98h.04c.23-.7,.58-1.24,1.04-1.61s1.01-.55,1.62-.55c.2,0,.37,0,.51,.03s.27,.05,.38,.09l-.26,1.43Z" style="fill: #333;"/>
    <path d="M122.02,137.85c-.46,.29-.92,.5-1.39,.63s-.97,.2-1.51,.2c-1.41,0-2.56-.44-3.46-1.31s-1.35-2.11-1.35-3.71,.45-2.94,1.36-3.95,2.16-1.5,3.75-1.5c.51,0,1,.06,1.47,.19s.94,.33,1.41,.61l-.67,1.17c-.37-.21-.74-.36-1.09-.46s-.75-.15-1.17-.15c-1.1,0-1.94,.37-2.53,1.1s-.88,1.67-.88,2.8c0,1.25,.31,2.2,.92,2.86s1.41,.99,2.39,.99c.32,0,.65-.05,1-.15s.7-.26,1.05-.47l.71,1.15Z" style="fill: #333;"/>
    <path d="M128.41,138.68c-1.48,0-2.66-.47-3.54-1.4s-1.32-2.17-1.32-3.72c0-1.67,.46-2.98,1.37-3.93s2.16-1.42,3.73-1.43c1.49,0,2.65,.45,3.49,1.38s1.25,2.2,1.25,3.82-.45,2.88-1.35,3.84-2.11,1.44-3.63,1.44Zm.12-1.35c1.04,0,1.83-.34,2.39-1.01s.83-1.63,.83-2.86-.28-2.22-.84-2.9-1.35-1.01-2.38-1.01-1.84,.35-2.44,1.05-.9,1.67-.9,2.89,.3,2.12,.91,2.8,1.42,1.03,2.43,1.03Z" style="fill: #333;"/>
    <path d="M144.25,138.45h-1.6v-5.7c0-1.06-.19-1.86-.58-2.39s-.97-.8-1.74-.8-1.46,.3-1.99,.9-.79,1.36-.79,2.28v5.7h-1.6v-10h1.6v1.66h.04c.38-.63,.84-1.1,1.39-1.42s1.18-.47,1.89-.47c1.09,0,1.93,.35,2.51,1.06s.87,1.73,.87,3.06v6.11Z" style="fill: #333;"/>
    <path d="M152.03,138.33c-.27,.11-.54,.19-.81,.25s-.56,.08-.89,.08c-.79,0-1.42-.23-1.87-.7s-.68-1.15-.68-2.07v-6.08h-1.72v-1.37h1.72v-2.44l1.6-.52v2.96h2.52v1.37h-2.52v5.9c0,.57,.1,.99,.31,1.24s.51,.38,.92,.38c.2,0,.38-.02,.57-.07s.33-.1,.46-.16l.39,1.22Z" style="fill: #333;"/>
    <path d="M158.98,129.81c-.12-.04-.23-.07-.33-.08s-.22-.02-.37-.02c-.81,0-1.46,.35-1.92,1.04s-.7,1.56-.7,2.6v5.1h-1.6v-10h1.6v1.98h.04c.23-.7,.58-1.24,1.04-1.61s1.01-.55,1.62-.55c.2,0,.37,0,.51,.03s.27,.05,.38,.09l-.26,1.43Z" style="fill: #333;"/>
    <path d="M168.08,138.45h-1.6v-1.56h-.04c-.34,.6-.77,1.05-1.27,1.35s-1.09,.45-1.76,.45c-.94,0-1.7-.27-2.28-.82s-.87-1.27-.87-2.18c0-.85,.29-1.56,.88-2.12s1.42-.92,2.49-1.07l2.85-.38v-.22c0-.84-.2-1.44-.59-1.79s-.91-.53-1.56-.53c-.52,0-1.02,.1-1.5,.29s-.93,.49-1.36,.9l-.94-.97c.56-.54,1.16-.94,1.79-1.19s1.33-.38,2.11-.38c1.21,0,2.12,.31,2.73,.93s.92,1.55,.92,2.8v6.5Zm-1.6-4.06v-1l-2.41,.33c-.74,.1-1.29,.29-1.66,.56s-.56,.69-.56,1.26,.17,1.06,.52,1.37,.77,.47,1.27,.47c.87,0,1.55-.28,2.07-.85s.77-1.28,.77-2.15Z" style="fill: #333;"/>
    <path d="M170.24,137.69l.76-1.23c.44,.29,.86,.5,1.28,.65s.87,.22,1.35,.22c.68,0,1.2-.13,1.56-.38s.53-.63,.53-1.14c0-.41-.16-.76-.47-1.04s-.81-.51-1.48-.68c-1.25-.32-2.11-.72-2.57-1.21s-.69-1.08-.69-1.79c0-.82,.31-1.51,.93-2.06s1.48-.83,2.59-.83c.53,0,1.04,.07,1.52,.21s.97,.37,1.47,.7l-.71,1.21c-.46-.29-.86-.49-1.23-.6s-.73-.17-1.1-.17c-.64,0-1.14,.12-1.47,.36s-.51,.58-.51,1.03,.17,.79,.52,1.02,.91,.44,1.68,.64c1.02,.27,1.78,.66,2.28,1.15s.76,1.13,.76,1.93c0,.92-.33,1.66-.98,2.19s-1.55,.81-2.69,.81c-.61,0-1.2-.08-1.76-.25s-1.09-.41-1.57-.73Z" style="fill: #333;"/>
    <path d="M187.7,133.81h-7.07c.03,1.13,.32,1.99,.89,2.6s1.37,.91,2.4,.91c.45,0,.9-.07,1.35-.2s.9-.35,1.34-.64l.74,1.14c-.57,.36-1.13,.63-1.7,.8s-1.19,.25-1.87,.25c-1.51,0-2.69-.45-3.54-1.35s-1.27-2.15-1.28-3.76,.42-2.9,1.27-3.89,1.97-1.47,3.33-1.47,2.31,.42,3.03,1.27,1.08,2.03,1.08,3.53v.79Zm-1.64-1.31c0-.92-.23-1.65-.67-2.16s-1.05-.78-1.83-.78-1.41,.27-1.94,.8-.85,1.25-.97,2.14h5.41Z" style="fill: #333;"/>
    <path d="M198.42,138.45h-1.6v-5.7c0-1.06-.19-1.86-.58-2.39s-.97-.8-1.74-.8-1.46,.3-1.99,.9-.79,1.36-.79,2.28v5.7h-1.6v-10h1.6v1.66h.04c.38-.63,.84-1.1,1.39-1.42s1.18-.47,1.89-.47c1.09,0,1.93,.35,2.51,1.06s.87,1.73,.87,3.06v6.11Zm-1.07-14.24c0,.68-.16,1.24-.47,1.67s-.74,.65-1.27,.65c-.23,0-.47-.04-.74-.13s-.54-.21-.84-.38c-.25-.14-.47-.25-.66-.32s-.36-.1-.5-.1c-.29,0-.5,.09-.64,.27s-.21,.46-.21,.83h-.92c0-.7,.16-1.25,.47-1.67s.75-.63,1.31-.63c.21,0,.44,.04,.68,.13s.5,.21,.77,.38c.24,.14,.47,.25,.67,.32s.4,.11,.58,.11c.27,0,.48-.09,.62-.28s.21-.47,.21-.85h.96Z" style="fill: #333;"/>
    <path d="M208.52,138.45h-1.6v-1.56h-.04c-.34,.6-.77,1.05-1.27,1.35s-1.09,.45-1.76,.45c-.94,0-1.7-.27-2.28-.82s-.87-1.27-.87-2.18c0-.85,.29-1.56,.88-2.12s1.42-.92,2.49-1.07l2.85-.38v-.22c0-.84-.2-1.44-.59-1.79s-.91-.53-1.56-.53c-.52,0-1.02,.1-1.5,.29s-.93,.49-1.36,.9l-.94-.97c.56-.54,1.16-.94,1.79-1.19s1.33-.38,2.11-.38c1.21,0,2.12,.31,2.73,.93s.92,1.55,.92,2.8v6.5Zm-1.6-4.06v-1l-2.41,.33c-.74,.1-1.29,.29-1.66,.56s-.56,.69-.56,1.26,.17,1.06,.52,1.37,.77,.47,1.27,.47c.87,0,1.55-.28,2.07-.85s.77-1.28,.77-2.15Z" style="fill: #333;"/>
  </g>
  <g>
    <path d="M50.06,220.69c-.28,.29-.63,.52-1.04,.68s-.85,.25-1.33,.25c-.71,0-1.27-.17-1.66-.51s-.59-.81-.59-1.4c0-.28,.05-.52,.15-.73s.23-.41,.38-.6c.3-.36,.64-.68,1-.96s.55-.62,.55-1.01c0-.15-.02-.28-.07-.41s-.09-.23-.13-.31l.86-.32c.05,.12,.1,.27,.15,.45s.06,.37,.06,.55c0,.49-.18,.89-.54,1.21s-.68,.63-.97,.96c-.15,.17-.27,.34-.37,.52s-.15,.38-.15,.6c0,.36,.13,.63,.4,.81s.59,.28,.96,.28c.28,0,.58-.07,.89-.2s.57-.31,.78-.54l.66,.69Zm-2.33-7.72c.18,0,.34,.06,.47,.19s.21,.29,.21,.47-.07,.35-.2,.48-.29,.19-.48,.19-.35-.06-.48-.19-.2-.29-.2-.48,.07-.35,.21-.47,.29-.19,.47-.19Z" style="fill: #1667b1;"/>
    <path d="M54.57,219.24c-1.19,0-2.15-.39-2.86-1.18s-1.08-1.81-1.08-3.06c0-1.35,.37-2.43,1.1-3.23s1.72-1.21,2.98-1.21c1.16,0,2.09,.39,2.8,1.17s1.06,1.8,1.06,3.06c0,1.37-.36,2.46-1.09,3.25s-1.7,1.2-2.92,1.2Zm0-.88c.92,0,1.65-.3,2.18-.9s.8-1.44,.8-2.53-.26-1.97-.77-2.57-1.23-.91-2.13-.91-1.6,.32-2.15,.96-.83,1.47-.83,2.51,.27,1.87,.81,2.5,1.24,.95,2.1,.95Z" style="fill: #1667b1;"/>
    <path d="M60.1,219.09v-8.88h.96v8.88h-.96Z" style="fill: #1667b1;"/>
    <path d="M67.72,213.09l-2.39,6h-.94l-2.27-6h1.05l1.52,4.36c.05,.16,.1,.31,.13,.45s.06,.27,.08,.39h.02c.02-.15,.04-.3,.08-.43s.07-.26,.11-.38l1.59-4.38h1.01Z" style="fill: #1667b1;"/>
    <path d="M69.24,211.66c-.2,0-.36-.07-.49-.2s-.2-.29-.2-.48,.07-.35,.2-.48,.3-.2,.49-.2,.36,.07,.49,.2,.2,.29,.2,.48-.07,.35-.2,.48-.3,.2-.49,.2Zm.47,7.44h-.96v-6h.96v6Z" style="fill: #1667b1;"/>
    <path d="M75.8,218.08c-.22,.39-.5,.68-.85,.87s-.75,.29-1.22,.29c-.75,0-1.36-.27-1.81-.81s-.68-1.27-.68-2.19c0-.99,.25-1.79,.75-2.38s1.17-.9,2-.9c.41,0,.77,.08,1.07,.24s.54,.41,.73,.73h.02v-3.71h.96v8.88h-.96v-1.02h-.02Zm-3.56-1.89c0,.69,.16,1.24,.48,1.64s.75,.6,1.3,.6,.97-.19,1.31-.58,.5-.88,.5-1.46v-.88c0-.48-.16-.89-.48-1.23s-.73-.5-1.22-.5c-.59,0-1.05,.21-1.38,.64s-.5,1.02-.5,1.78Z" style="fill: #1667b1;"/>
    <path d="M81.23,219.24c-.89,0-1.59-.28-2.12-.84s-.79-1.3-.79-2.23c0-1,.27-1.79,.82-2.36s1.29-.85,2.24-.86c.89,0,1.59,.27,2.09,.83s.75,1.32,.75,2.29-.27,1.73-.81,2.3-1.27,.86-2.18,.86Zm.07-.81c.62,0,1.1-.2,1.43-.61s.5-.98,.5-1.71-.17-1.33-.5-1.74-.81-.61-1.43-.61-1.11,.21-1.46,.63-.54,1-.54,1.73,.18,1.27,.54,1.68,.85,.62,1.46,.62Zm-.03-6.47h-.74l1.31-1.92h.97l-1.54,1.92Z" style="fill: #1667b1;"/>
    <path d="M88.48,218.64l.46-.74c.26,.17,.52,.3,.77,.39s.52,.13,.81,.13c.41,0,.72-.08,.93-.23s.32-.38,.32-.69c0-.25-.09-.45-.28-.62s-.49-.31-.89-.41c-.75-.19-1.26-.43-1.54-.72s-.42-.65-.42-1.08c0-.49,.19-.9,.56-1.23s.89-.5,1.55-.5c.32,0,.62,.04,.91,.12s.58,.22,.88,.42l-.43,.73c-.27-.17-.52-.29-.74-.36s-.44-.1-.66-.1c-.39,0-.68,.07-.88,.21s-.3,.35-.3,.62,.1,.47,.31,.61,.55,.27,1.01,.39c.61,.16,1.07,.39,1.37,.69s.45,.68,.45,1.16c0,.55-.2,.99-.59,1.32s-.93,.48-1.61,.48c-.37,0-.72-.05-1.06-.15s-.65-.25-.94-.44Z" style="fill: #1667b1;"/>
    <path d="M98.99,219.09h-.96v-.95h-.02c-.2,.36-.45,.64-.76,.82s-.67,.27-1.09,.27c-.71,0-1.25-.21-1.61-.64s-.54-1.06-.54-1.92v-3.59h.96v3.43c0,.63,.12,1.11,.36,1.42s.61,.47,1.09,.47,.85-.17,1.16-.52,.45-.8,.45-1.36v-3.46h.96v6Z" style="fill: #1667b1;"/>
    <path d="M108.43,218.74c-.28,.17-.55,.3-.83,.38s-.58,.12-.91,.12c-.84,0-1.54-.26-2.08-.79s-.81-1.27-.81-2.23,.27-1.77,.82-2.37,1.29-.9,2.25-.9c.31,0,.6,.04,.88,.11s.56,.2,.85,.36l-.4,.7c-.22-.12-.44-.22-.66-.28s-.45-.09-.7-.09c-.66,0-1.17,.22-1.52,.66s-.53,1-.53,1.68c0,.75,.18,1.32,.55,1.72s.85,.59,1.43,.59c.19,0,.39-.03,.6-.09s.42-.16,.63-.28l.43,.69Z" style="fill: #1667b1;"/>
    <path d="M112.26,219.24c-.89,0-1.59-.28-2.12-.84s-.79-1.3-.79-2.23c0-1,.27-1.79,.82-2.36s1.29-.85,2.24-.86c.89,0,1.59,.27,2.09,.83s.75,1.32,.75,2.29-.27,1.73-.81,2.3-1.27,.86-2.18,.86Zm.07-.81c.62,0,1.1-.2,1.43-.61s.5-.98,.5-1.71-.17-1.33-.5-1.74-.81-.61-1.43-.61-1.11,.21-1.46,.63-.54,1-.54,1.73,.18,1.27,.54,1.68,.85,.62,1.46,.62Z" style="fill: #1667b1;"/>
    <path d="M121.77,219.09h-.96v-3.42c0-.64-.12-1.11-.35-1.43s-.58-.48-1.05-.48-.88,.18-1.19,.54-.47,.82-.47,1.37v3.42h-.96v-6h.96v1h.02c.23-.38,.5-.66,.83-.85s.71-.28,1.14-.28c.66,0,1.16,.21,1.51,.64s.52,1.04,.52,1.84v3.67Z" style="fill: #1667b1;"/>
    <path d="M126.44,219.02c-.16,.07-.33,.12-.48,.15s-.34,.05-.54,.05c-.48,0-.85-.14-1.12-.42s-.41-.69-.41-1.24v-3.65h-1.03v-.82h1.03v-1.46l.96-.31v1.78h1.51v.82h-1.51v3.54c0,.34,.06,.59,.18,.74s.31,.23,.55,.23c.12,0,.23-.01,.34-.04s.2-.06,.28-.09l.23,.73Z" style="fill: #1667b1;"/>
    <path d="M130.6,213.92c-.07-.02-.14-.04-.2-.05s-.13-.01-.22-.01c-.49,0-.87,.21-1.15,.62s-.42,.94-.42,1.56v3.06h-.96v-6h.96v1.19h.02c.14-.42,.35-.74,.63-.96s.61-.33,.97-.33c.12,0,.22,0,.31,.02s.16,.03,.23,.05l-.16,.86Z" style="fill: #1667b1;"/>
    <path d="M136.06,219.09h-.96v-.94h-.02c-.21,.36-.46,.63-.76,.81s-.66,.27-1.06,.27c-.56,0-1.02-.16-1.37-.49s-.52-.76-.52-1.31c0-.51,.18-.94,.53-1.27s.85-.55,1.49-.64l1.71-.23v-.13c0-.5-.12-.86-.35-1.08s-.55-.32-.94-.32c-.31,0-.61,.06-.9,.18s-.56,.3-.81,.54l-.56-.58c.34-.32,.69-.56,1.07-.71s.8-.23,1.27-.23c.73,0,1.27,.19,1.64,.56s.55,.93,.55,1.68v3.9Zm-.96-2.44v-.6l-1.45,.2c-.44,.06-.77,.17-1,.33s-.33,.41-.33,.76,.1,.63,.31,.82,.46,.28,.76,.28c.52,0,.93-.17,1.24-.51s.46-.77,.46-1.29Z" style="fill: #1667b1;"/>
    <path d="M137.36,218.64l.46-.74c.26,.17,.52,.3,.77,.39s.52,.13,.81,.13c.41,0,.72-.08,.93-.23s.32-.38,.32-.69c0-.25-.09-.45-.28-.62s-.49-.31-.89-.41c-.75-.19-1.26-.43-1.54-.72s-.42-.65-.42-1.08c0-.49,.19-.9,.56-1.23s.89-.5,1.55-.5c.32,0,.62,.04,.91,.12s.58,.22,.88,.42l-.43,.73c-.27-.17-.52-.29-.74-.36s-.44-.1-.66-.1c-.39,0-.68,.07-.88,.21s-.3,.35-.3,.62,.1,.47,.31,.61,.55,.27,1.01,.39c.61,.16,1.07,.39,1.37,.69s.45,.68,.45,1.16c0,.55-.2,.99-.59,1.32s-.93,.48-1.61,.48c-.37,0-.72-.05-1.06-.15s-.65-.25-.94-.44Z" style="fill: #1667b1;"/>
    <path d="M147.84,216.31h-4.24c.02,.68,.19,1.2,.54,1.56s.82,.55,1.44,.55c.27,0,.54-.04,.81-.12s.54-.21,.81-.38l.45,.69c-.34,.22-.68,.38-1.02,.48s-.71,.15-1.12,.15c-.91,0-1.61-.27-2.12-.81s-.76-1.29-.77-2.26,.25-1.74,.76-2.33,1.18-.88,2-.88,1.39,.25,1.82,.76,.65,1.22,.65,2.12v.47Zm-.98-.79c0-.55-.14-.99-.4-1.3s-.63-.47-1.1-.47-.84,.16-1.16,.48-.51,.75-.58,1.29h3.25Z" style="fill: #1667b1;"/>
    <path d="M154.27,219.09h-.96v-3.42c0-.64-.12-1.11-.35-1.43s-.58-.48-1.05-.48-.88,.18-1.19,.54-.47,.82-.47,1.37v3.42h-.96v-6h.96v1h.02c.23-.38,.5-.66,.83-.85s.71-.28,1.14-.28c.66,0,1.16,.21,1.51,.64s.52,1.04,.52,1.84v3.67Zm-.64-8.54c0,.41-.09,.75-.28,1s-.44,.39-.76,.39c-.14,0-.28-.03-.44-.08s-.33-.13-.51-.23c-.15-.09-.28-.15-.4-.19s-.22-.06-.3-.06c-.17,0-.3,.05-.39,.16s-.13,.28-.13,.5h-.55c0-.42,.09-.75,.28-1s.45-.38,.79-.38c.13,0,.27,.03,.41,.08s.3,.13,.46,.23c.14,.09,.28,.15,.4,.19s.24,.06,.35,.06c.16,0,.29-.06,.37-.17s.12-.28,.12-.51h.57Z" style="fill: #1667b1;"/>
    <path d="M160.33,219.09h-.96v-.94h-.02c-.21,.36-.46,.63-.76,.81s-.66,.27-1.06,.27c-.56,0-1.02-.16-1.37-.49s-.52-.76-.52-1.31c0-.51,.18-.94,.53-1.27s.85-.55,1.49-.64l1.71-.23v-.13c0-.5-.12-.86-.35-1.08s-.55-.32-.94-.32c-.31,0-.61,.06-.9,.18s-.56,.3-.81,.54l-.56-.58c.34-.32,.69-.56,1.07-.71s.8-.23,1.27-.23c.73,0,1.27,.19,1.64,.56s.55,.93,.55,1.68v3.9Zm-.96-2.44v-.6l-1.45,.2c-.44,.06-.77,.17-1,.33s-.33,.41-.33,.76,.1,.63,.31,.82,.46,.28,.76,.28c.52,0,.93-.17,1.24-.51s.46-.77,.46-1.29Z" style="fill: #1667b1;"/>
    <path d="M163.24,216.82c-.05-.12-.1-.27-.15-.45s-.06-.37-.06-.55c0-.24,.05-.45,.16-.64s.23-.36,.38-.53c.16-.17,.32-.34,.49-.5s.33-.33,.48-.49c.15-.17,.27-.34,.37-.52s.15-.38,.15-.6c0-.38-.13-.66-.4-.86s-.59-.3-.96-.3c-.28,0-.57,.07-.87,.22s-.56,.34-.78,.58l-.6-.6c.29-.3,.63-.54,1.02-.73s.81-.28,1.27-.28c.64,0,1.18,.16,1.61,.47s.65,.77,.65,1.38c0,.29-.05,.55-.15,.77s-.23,.44-.38,.63c-.16,.19-.32,.37-.5,.54s-.34,.33-.51,.48c-.15,.14-.28,.29-.39,.44s-.16,.33-.16,.51c0,.15,.02,.28,.07,.41s.09,.23,.13,.31l-.86,.32Zm.46,2.38c-.18,0-.34-.06-.47-.19s-.21-.29-.21-.47,.07-.35,.2-.48,.29-.19,.48-.19,.35,.06,.48,.19,.2,.29,.2,.48-.07,.35-.21,.47-.29,.19-.47,.19Z" style="fill: #1667b1;"/>
  </g>
  <g>
    <path d="M50.26,246.97h-4.45v-8.4h4.27v.89h-3.28v2.79h3.04v.88h-3.04v2.94h3.47v.89Z" style="fill: #1667b1;"/>
    <path d="M56.72,246.97h-.96v-3.42c0-.64-.12-1.11-.35-1.43s-.58-.48-1.05-.48-.88,.18-1.19,.54-.47,.82-.47,1.37v3.42h-.96v-6h.96v1h.02c.23-.38,.5-.66,.83-.85s.71-.28,1.14-.28c.66,0,1.16,.21,1.51,.64s.52,1.04,.52,1.84v3.67Z" style="fill: #1667b1;"/>
    <path d="M63.25,240.97l-2.39,6h-.94l-2.27-6h1.05l1.52,4.36c.05,.16,.1,.31,.13,.45s.06,.27,.08,.39h.02c.02-.15,.04-.3,.08-.43s.07-.26,.11-.38l1.59-4.38h1.01Z" style="fill: #1667b1;"/>
    <path d="M64.77,239.53c-.2,0-.36-.07-.49-.2s-.2-.29-.2-.48,.07-.35,.2-.48,.3-.2,.49-.2,.36,.07,.49,.2,.2,.29,.2,.48-.07,.35-.2,.48-.3,.2-.49,.2Zm.47,7.44h-.96v-6h.96v6Z" style="fill: #1667b1;"/>
    <path d="M71.44,246.97h-.96v-.94h-.02c-.21,.36-.46,.63-.76,.81s-.66,.27-1.06,.27c-.56,0-1.02-.16-1.37-.49s-.52-.76-.52-1.31c0-.51,.18-.94,.53-1.27s.85-.55,1.49-.64l1.71-.23v-.13c0-.5-.12-.86-.35-1.08s-.55-.32-.94-.32c-.31,0-.61,.06-.9,.18s-.56,.3-.81,.54l-.56-.58c.34-.32,.69-.56,1.07-.71s.8-.23,1.27-.23c.73,0,1.27,.19,1.64,.56s.55,.93,.55,1.68v3.9Zm-.96-2.44v-.6l-1.45,.2c-.44,.06-.77,.17-1,.33s-.33,.41-.33,.76,.1,.63,.31,.82,.46,.28,.76,.28c.52,0,.93-.17,1.24-.51s.46-.77,.46-1.29Z" style="fill: #1667b1;"/>
    <path d="M76.25,241.79c-.07-.02-.14-.04-.2-.05s-.13-.01-.22-.01c-.49,0-.87,.21-1.15,.62s-.42,.94-.42,1.56v3.06h-.96v-6h.96v1.19h.02c.14-.42,.35-.74,.63-.96s.61-.33,.97-.33c.12,0,.22,0,.31,.02s.16,.03,.23,.05l-.16,.86Z" style="fill: #1667b1;"/>
    <path d="M84.97,246.61c-.28,.17-.55,.3-.83,.38s-.58,.12-.91,.12c-.84,0-1.54-.26-2.08-.79s-.81-1.27-.81-2.23,.27-1.77,.82-2.37,1.29-.9,2.25-.9c.31,0,.6,.04,.88,.11s.56,.2,.85,.36l-.4,.7c-.22-.12-.44-.22-.66-.28s-.45-.09-.7-.09c-.66,0-1.17,.22-1.52,.66s-.53,1-.53,1.68c0,.75,.18,1.32,.55,1.72s.85,.59,1.43,.59c.19,0,.39-.03,.6-.09s.42-.16,.63-.28l.43,.69Z" style="fill: #1667b1;"/>
    <path d="M88.8,247.11c-.89,0-1.59-.28-2.12-.84s-.79-1.3-.79-2.23c0-1,.27-1.79,.82-2.36s1.29-.85,2.24-.86c.89,0,1.59,.27,2.09,.83s.75,1.32,.75,2.29-.27,1.73-.81,2.3-1.27,.86-2.18,.86Zm.07-.81c.62,0,1.1-.2,1.43-.61s.5-.98,.5-1.71-.17-1.33-.5-1.74-.81-.61-1.43-.61-1.11,.21-1.46,.63-.54,1-.54,1.73,.18,1.27,.54,1.68,.85,.62,1.46,.62Zm-.03-6.47h-.74l1.31-1.92h.97l-1.54,1.92Z" style="fill: #1667b1;"/>
    <path d="M97.46,245.95c-.22,.39-.5,.68-.85,.87s-.75,.29-1.22,.29c-.75,0-1.36-.27-1.81-.81s-.68-1.27-.68-2.19c0-.99,.25-1.79,.75-2.38s1.17-.9,2-.9c.41,0,.77,.08,1.07,.24s.54,.41,.73,.73h.02v-3.71h.96v8.88h-.96v-1.02h-.02Zm-3.56-1.89c0,.69,.16,1.24,.48,1.64s.75,.6,1.3,.6,.97-.19,1.31-.58,.5-.88,.5-1.46v-.88c0-.48-.16-.89-.48-1.23s-.73-.5-1.22-.5c-.59,0-1.05,.21-1.38,.64s-.5,1.02-.5,1.78Z" style="fill: #1667b1;"/>
    <path d="M100.89,239.53c-.2,0-.36-.07-.49-.2s-.2-.29-.2-.48,.07-.35,.2-.48,.3-.2,.49-.2,.36,.07,.49,.2,.2,.29,.2,.48-.07,.35-.2,.48-.3,.2-.49,.2Zm.47,7.44h-.96v-6h.96v6Z" style="fill: #1667b1;"/>
    <path d="M108.42,246.64c0,1.05-.27,1.84-.81,2.36s-1.27,.79-2.21,.79c-.41,0-.79-.04-1.15-.12s-.72-.21-1.09-.38l.35-.74c.31,.14,.62,.25,.92,.32s.62,.1,.96,.1c.64,0,1.14-.18,1.51-.54s.55-.91,.55-1.65v-.81h-.02c-.23,.38-.51,.67-.86,.86s-.75,.29-1.21,.29c-.75,0-1.35-.27-1.8-.8s-.68-1.25-.68-2.15c0-.98,.25-1.79,.75-2.41s1.17-.93,2-.93c.41,0,.76,.08,1.06,.24s.55,.41,.74,.73h.02v-.83h.96v5.68Zm-.96-2.39v-.88c0-.48-.16-.88-.48-1.22s-.72-.51-1.2-.51c-.59,0-1.05,.2-1.39,.61s-.51,1.02-.51,1.85c0,.71,.16,1.26,.47,1.63s.74,.57,1.29,.57,.98-.19,1.32-.57,.51-.87,.51-1.47Z" style="fill: #1667b1;"/>
    <path d="M112.87,247.11c-.89,0-1.59-.28-2.12-.84s-.79-1.3-.79-2.23c0-1,.27-1.79,.82-2.36s1.29-.85,2.24-.86c.89,0,1.59,.27,2.09,.83s.75,1.32,.75,2.29-.27,1.73-.81,2.3-1.27,.86-2.18,.86Zm.07-.81c.62,0,1.1-.2,1.43-.61s.5-.98,.5-1.71-.17-1.33-.5-1.74-.81-.61-1.43-.61-1.11,.21-1.46,.63-.54,1-.54,1.73,.18,1.27,.54,1.68,.85,.62,1.46,.62Z" style="fill: #1667b1;"/>
    <path d="M124.93,246.97h-.96v-.94h-.02c-.21,.36-.46,.63-.76,.81s-.66,.27-1.06,.27c-.56,0-1.02-.16-1.37-.49s-.52-.76-.52-1.31c0-.51,.18-.94,.53-1.27s.85-.55,1.49-.64l1.71-.23v-.13c0-.5-.12-.86-.35-1.08s-.55-.32-.94-.32c-.31,0-.61,.06-.9,.18s-.56,.3-.81,.54l-.56-.58c.34-.32,.69-.56,1.07-.71s.8-.23,1.27-.23c.73,0,1.27,.19,1.64,.56s.55,.93,.55,1.68v3.9Zm-.96-2.44v-.6l-1.45,.2c-.44,.06-.77,.17-1,.33s-.33,.41-.33,.76,.1,.63,.31,.82,.46,.28,.76,.28c.52,0,.93-.17,1.24-.51s.46-.77,.46-1.29Z" style="fill: #1667b1;"/>
    <path d="M129.52,246.52l.46-.74c.26,.17,.52,.3,.77,.39s.52,.13,.81,.13c.41,0,.72-.08,.93-.23s.32-.38,.32-.69c0-.25-.09-.45-.28-.62s-.49-.31-.89-.41c-.75-.19-1.26-.43-1.54-.72s-.42-.65-.42-1.08c0-.49,.19-.9,.56-1.23s.89-.5,1.55-.5c.32,0,.62,.04,.91,.12s.58,.22,.88,.42l-.43,.73c-.27-.17-.52-.29-.74-.36s-.44-.1-.66-.1c-.39,0-.68,.07-.88,.21s-.3,.35-.3,.62,.1,.47,.31,.61,.55,.27,1.01,.39c.61,.16,1.07,.39,1.37,.69s.45,.68,.45,1.16c0,.55-.2,.99-.59,1.32s-.93,.48-1.61,.48c-.37,0-.72-.05-1.06-.15s-.65-.25-.94-.44Z" style="fill: #1667b1;"/>
    <path d="M140.02,246.97h-.96v-.95h-.02c-.2,.36-.45,.64-.76,.82s-.67,.27-1.09,.27c-.71,0-1.25-.21-1.61-.64s-.54-1.06-.54-1.92v-3.59h.96v3.43c0,.63,.12,1.11,.36,1.42s.61,.47,1.09,.47,.85-.17,1.16-.52,.45-.8,.45-1.36v-3.46h.96v6Z" style="fill: #1667b1;"/>
    <path d="M149.47,246.61c-.28,.17-.55,.3-.83,.38s-.58,.12-.91,.12c-.84,0-1.54-.26-2.08-.79s-.81-1.27-.81-2.23,.27-1.77,.82-2.37,1.29-.9,2.25-.9c.31,0,.6,.04,.88,.11s.56,.2,.85,.36l-.4,.7c-.22-.12-.44-.22-.66-.28s-.45-.09-.7-.09c-.66,0-1.17,.22-1.52,.66s-.53,1-.53,1.68c0,.75,.18,1.32,.55,1.72s.85,.59,1.43,.59c.19,0,.39-.03,.6-.09s.42-.16,.63-.28l.43,.69Z" style="fill: #1667b1;"/>
    <path d="M153.3,247.11c-.89,0-1.59-.28-2.12-.84s-.79-1.3-.79-2.23c0-1,.27-1.79,.82-2.36s1.29-.85,2.24-.86c.89,0,1.59,.27,2.09,.83s.75,1.32,.75,2.29-.27,1.73-.81,2.3-1.27,.86-2.18,.86Zm.07-.81c.62,0,1.1-.2,1.43-.61s.5-.98,.5-1.71-.17-1.33-.5-1.74-.81-.61-1.43-.61-1.11,.21-1.46,.63-.54,1-.54,1.73,.18,1.27,.54,1.68,.85,.62,1.46,.62Z" style="fill: #1667b1;"/>
    <path d="M160.78,241.79c-.07-.02-.14-.04-.2-.05s-.13-.01-.22-.01c-.49,0-.87,.21-1.15,.62s-.42,.94-.42,1.56v3.06h-.96v-6h.96v1.19h.02c.14-.42,.35-.74,.63-.96s.61-.33,.97-.33c.12,0,.22,0,.31,.02s.16,.03,.23,.05l-.16,.86Z" style="fill: #1667b1;"/>
    <path d="M164.95,241.79c-.07-.02-.14-.04-.2-.05s-.13-.01-.22-.01c-.49,0-.87,.21-1.15,.62s-.42,.94-.42,1.56v3.06h-.96v-6h.96v1.19h.02c.14-.42,.35-.74,.63-.96s.61-.33,.97-.33c.12,0,.22,0,.31,.02s.16,.03,.23,.05l-.16,.86Z" style="fill: #1667b1;"/>
    <path d="M170.99,244.18h-4.24c.02,.68,.19,1.2,.54,1.56s.82,.55,1.44,.55c.27,0,.54-.04,.81-.12s.54-.21,.81-.38l.45,.69c-.34,.22-.68,.38-1.02,.48s-.71,.15-1.12,.15c-.91,0-1.61-.27-2.12-.81s-.76-1.29-.77-2.26,.25-1.74,.76-2.33,1.18-.88,2-.88,1.39,.25,1.82,.76,.65,1.22,.65,2.12v.47Zm-.98-.79c0-.55-.14-.99-.4-1.3s-.63-.47-1.1-.47-.84,.16-1.16,.48-.51,.75-.58,1.29h3.25Z" style="fill: #1667b1;"/>
    <path d="M174.95,247.11c-.89,0-1.59-.28-2.12-.84s-.79-1.3-.79-2.23c0-1,.27-1.79,.82-2.36s1.29-.85,2.24-.86c.89,0,1.59,.27,2.09,.83s.75,1.32,.75,2.29-.27,1.73-.81,2.3-1.27,.86-2.18,.86Zm.07-.81c.62,0,1.1-.2,1.43-.61s.5-.98,.5-1.71-.17-1.33-.5-1.74-.81-.61-1.43-.61-1.11,.21-1.46,.63-.54,1-.54,1.73,.18,1.27,.54,1.68,.85,.62,1.46,.62Z" style="fill: #1667b1;"/>
    <path d="M186.9,245.95c-.22,.39-.5,.68-.85,.87s-.75,.29-1.22,.29c-.75,0-1.36-.27-1.81-.81s-.68-1.27-.68-2.19c0-.99,.25-1.79,.75-2.38s1.17-.9,2-.9c.41,0,.77,.08,1.07,.24s.54,.41,.73,.73h.02v-3.71h.96v8.88h-.96v-1.02h-.02Zm-3.56-1.89c0,.69,.16,1.24,.48,1.64s.75,.6,1.3,.6,.97-.19,1.31-.58,.5-.88,.5-1.46v-.88c0-.48-.16-.89-.48-1.23s-.73-.5-1.22-.5c-.59,0-1.05,.21-1.38,.64s-.5,1.02-.5,1.78Z" style="fill: #1667b1;"/>
    <path d="M194.65,244.18h-4.24c.02,.68,.19,1.2,.54,1.56s.82,.55,1.44,.55c.27,0,.54-.04,.81-.12s.54-.21,.81-.38l.45,.69c-.34,.22-.68,.38-1.02,.48s-.71,.15-1.12,.15c-.91,0-1.61-.27-2.12-.81s-.76-1.29-.77-2.26,.25-1.74,.76-2.33,1.18-.88,2-.88,1.39,.25,1.82,.76,.65,1.22,.65,2.12v.47Zm-.98-.79c0-.55-.14-.99-.4-1.3s-.63-.47-1.1-.47-.84,.16-1.16,.48-.51,.75-.58,1.29h3.25Z" style="fill: #1667b1;"/>
    <path d="M202.35,241.79c-.07-.02-.14-.04-.2-.05s-.13-.01-.22-.01c-.49,0-.87,.21-1.15,.62s-.42,.94-.42,1.56v3.06h-.96v-6h.96v1.19h.02c.14-.42,.35-.74,.63-.96s.61-.33,.97-.33c.12,0,.22,0,.31,.02s.16,.03,.23,.05l-.16,.86Z" style="fill: #1667b1;"/>
    <path d="M208.38,244.18h-4.24c.02,.68,.19,1.2,.54,1.56s.82,.55,1.44,.55c.27,0,.54-.04,.81-.12s.54-.21,.81-.38l.45,.69c-.34,.22-.68,.38-1.02,.48s-.71,.15-1.12,.15c-.91,0-1.61-.27-2.12-.81s-.76-1.29-.77-2.26,.25-1.74,.76-2.33,1.18-.88,2-.88,1.39,.25,1.82,.76,.65,1.22,.65,2.12v.47Zm-.98-.79c0-.55-.14-.99-.4-1.3s-.63-.47-1.1-.47-.84,.16-1.16,.48-.51,.75-.58,1.29h3.25Z" style="fill: #1667b1;"/>
    <path d="M214.05,246.61c-.28,.17-.55,.3-.83,.38s-.58,.12-.91,.12c-.84,0-1.54-.26-2.08-.79s-.81-1.27-.81-2.23,.27-1.77,.82-2.37,1.29-.9,2.25-.9c.31,0,.6,.04,.88,.11s.56,.2,.85,.36l-.4,.7c-.22-.12-.44-.22-.66-.28s-.45-.09-.7-.09c-.66,0-1.17,.22-1.52,.66s-.53,1-.53,1.68c0,.75,.18,1.32,.55,1.72s.85,.59,1.43,.59c.19,0,.39-.03,.6-.09s.42-.16,.63-.28l.43,.69Z" style="fill: #1667b1;"/>
    <path d="M220.23,246.97h-.96v-.95h-.02c-.2,.36-.45,.64-.76,.82s-.67,.27-1.09,.27c-.71,0-1.25-.21-1.61-.64s-.54-1.06-.54-1.92v-3.59h.96v3.43c0,.63,.12,1.11,.36,1.42s.61,.47,1.09,.47,.85-.17,1.16-.52,.45-.8,.45-1.36v-3.46h.96v6Z" style="fill: #1667b1;"/>
    <path d="M223.15,246.1h-.02v3.63h-.96v-8.76h.96v1.05h.02c.24-.4,.53-.7,.88-.9s.75-.3,1.2-.3c.77,0,1.38,.27,1.81,.81s.65,1.26,.65,2.16c0,1-.24,1.81-.73,2.41s-1.16,.91-2,.91c-.39,0-.73-.08-1.03-.25s-.56-.42-.77-.76Zm-.02-2.42v.84c0,.5,.16,.92,.48,1.26s.73,.52,1.23,.52c.58,0,1.04-.22,1.37-.67s.5-1.06,.5-1.86c0-.67-.15-1.19-.46-1.57s-.73-.57-1.25-.57c-.56,0-1.01,.19-1.35,.58s-.51,.88-.51,1.46Z" style="fill: #1667b1;"/>
    <path d="M234.05,244.18h-4.24c.02,.68,.19,1.2,.54,1.56s.82,.55,1.44,.55c.27,0,.54-.04,.81-.12s.54-.21,.81-.38l.45,.69c-.34,.22-.68,.38-1.02,.48s-.71,.15-1.12,.15c-.91,0-1.61-.27-2.12-.81s-.76-1.29-.77-2.26,.25-1.74,.76-2.33,1.18-.88,2-.88,1.39,.25,1.82,.76,.65,1.22,.65,2.12v.47Zm-.98-.79c0-.55-.14-.99-.4-1.3s-.63-.47-1.1-.47-.84,.16-1.16,.48-.51,.75-.58,1.29h3.25Z" style="fill: #1667b1;"/>
    <path d="M238.46,241.79c-.07-.02-.14-.04-.2-.05s-.13-.01-.22-.01c-.49,0-.87,.21-1.15,.62s-.42,.94-.42,1.56v3.06h-.96v-6h.96v1.19h.02c.14-.42,.35-.74,.63-.96s.61-.33,.97-.33c.12,0,.22,0,.31,.02s.16,.03,.23,.05l-.16,.86Z" style="fill: #1667b1;"/>
    <path d="M243.92,246.97h-.96v-.94h-.02c-.21,.36-.46,.63-.76,.81s-.66,.27-1.06,.27c-.56,0-1.02-.16-1.37-.49s-.52-.76-.52-1.31c0-.51,.18-.94,.53-1.27s.85-.55,1.49-.64l1.71-.23v-.13c0-.5-.12-.86-.35-1.08s-.55-.32-.94-.32c-.31,0-.61,.06-.9,.18s-.56,.3-.81,.54l-.56-.58c.34-.32,.69-.56,1.07-.71s.8-.23,1.27-.23c.73,0,1.27,.19,1.64,.56s.55,.93,.55,1.68v3.9Zm-.96-2.44v-.6l-1.45,.2c-.44,.06-.77,.17-1,.33s-.33,.41-.33,.76,.1,.63,.31,.82,.46,.28,.76,.28c.52,0,.93-.17,1.24-.51s.46-.77,.46-1.29Z" style="fill: #1667b1;"/>
    <path d="M250,246.61c-.28,.17-.55,.3-.83,.38s-.58,.12-.91,.12c-.84,0-1.54-.26-2.08-.79s-.81-1.27-.81-2.23,.27-1.77,.82-2.37,1.29-.9,2.25-.9c.31,0,.6,.04,.88,.11s.56,.2,.85,.36l-.4,.7c-.22-.12-.44-.22-.66-.28s-.45-.09-.7-.09c-.66,0-1.17,.22-1.52,.66s-.53,1-.53,1.68c0,.75,.18,1.32,.55,1.72s.85,.59,1.43,.59c.19,0,.39-.03,.6-.09s.42-.16,.63-.28l.43,.69Z" style="fill: #1667b1;"/>
    <path d="M251.81,239.53c-.2,0-.36-.07-.49-.2s-.2-.29-.2-.48,.07-.35,.2-.48,.3-.2,.49-.2,.36,.07,.49,.2,.2,.29,.2,.48-.07,.35-.2,.48-.3,.2-.49,.2Zm.47,7.44h-.96v-6h.96v6Z" style="fill: #1667b1;"/>
    <path d="M256.73,247.11c-.89,0-1.59-.28-2.12-.84s-.79-1.3-.79-2.23c0-1,.27-1.79,.82-2.36s1.29-.85,2.24-.86c.89,0,1.59,.27,2.09,.83s.75,1.32,.75,2.29-.27,1.73-.81,2.3-1.27,.86-2.18,.86Zm.07-.81c.62,0,1.1-.2,1.43-.61s.5-.98,.5-1.71-.17-1.33-.5-1.74-.81-.61-1.43-.61-1.11,.21-1.46,.63-.54,1-.54,1.73,.18,1.27,.54,1.68,.85,.62,1.46,.62Zm-.03-6.47h-.74l1.31-1.92h.97l-1.54,1.92Z" style="fill: #1667b1;"/>
    <path d="M266.24,246.97h-.96v-3.42c0-.64-.12-1.11-.35-1.43s-.58-.48-1.05-.48-.88,.18-1.19,.54-.47,.82-.47,1.37v3.42h-.96v-6h.96v1h.02c.23-.38,.5-.66,.83-.85s.71-.28,1.14-.28c.66,0,1.16,.21,1.51,.64s.52,1.04,.52,1.84v3.67Z" style="fill: #1667b1;"/>
  </g>
  <path d="M50.84,101.11s-3,3-4.17,4.17c-.1,.1-.15,.23-.15,.35s.05,.26,.15,.35c1.17,1.17,4.17,4.17,4.17,4.17,.1,.1,.22,.14,.35,.14,.13,0,.26-.05,.35-.15,.2-.2,.2-.51,0-.7l-3.32-3.32h9.8c.28,0,.5-.22,.5-.5s-.22-.5-.5-.5h-9.8l3.32-3.32c.19-.19,.19-.51,0-.7-.1-.1-.23-.15-.35-.15-.13,0-.25,.05-.35,.14Z" style="fill: #606060;"/>
</svg>