<?xml version="1.0" encoding="UTF-8"?>
<svg id="Layer_1" data-name="Layer 1" xmlns="http://www.w3.org/2000/svg" viewBox="0 0 420 43.1">
  <rect x="-4" y="-5.8" width="432" height="54.7" style="fill: #fff;"/>
  <g>
    <path d="M92.31,27.66c-1.32,0-2.34-.41-3.15-1.32-.81-.91-1.22-2.03-1.22-3.35,0-1.52,.41-2.64,1.22-3.55s1.93-1.32,3.25-1.32c1.22,0,2.34,.41,3.05,1.32,.81,.81,1.22,1.93,1.22,3.35,0,1.52-.41,2.64-1.22,3.55-.71,.81-1.83,1.32-3.15,1.32h0Zm.1-8.53c-.91,0-1.73,.3-2.34,1.02-.61,.71-.91,1.63-.91,2.74s.3,2.03,.91,2.74,1.32,1.02,2.34,1.02,1.83-.3,2.34-1.02,.91-1.63,.91-2.74-.3-2.13-.81-2.84c-.71-.61-1.42-.91-2.44-.91Z" style="fill: #4c4c4c;"/>
    <path d="M99.42,26.54h0v3.96h-1.02v-9.55h1.02v1.12h0c.51-.91,1.22-1.32,2.23-1.32,.81,0,1.52,.3,1.93,.91,.51,.61,.71,1.42,.71,2.34,0,1.12-.3,2.03-.81,2.64s-1.22,1.02-2.23,1.02c-.71,0-1.32-.41-1.83-1.12h0Zm0-2.64v.91c0,.51,.2,1.02,.51,1.42s.81,.61,1.32,.61c.61,0,1.12-.2,1.52-.71s.51-1.12,.51-2.03c0-.71-.2-1.32-.51-1.73s-.81-.61-1.32-.61c-.61,0-1.12,.2-1.42,.61s-.61,.81-.61,1.52h0Z" style="fill: #4c4c4c;"/>
    <path d="M110.59,27.15c-.51,.3-1.12,.51-1.83,.51-.91,0-1.73-.3-2.23-.91-.61-.61-.81-1.42-.81-2.34,0-1.12,.3-1.93,.91-2.64s1.42-1.02,2.44-1.02c.61,0,1.12,.1,1.52,.3v1.12c-.51-.3-1.02-.51-1.52-.51-.71,0-1.22,.2-1.62,.71s-.61,1.12-.61,1.93,.2,1.42,.61,1.83,.91,.71,1.62,.71c.61,0,1.12-.2,1.62-.61l-.1,.91h0Z" style="fill: #4c4c4c;"/>
    <path d="M112.72,19.23c-.2,0-.3-.1-.51-.2-.1-.1-.2-.3-.2-.51s.1-.41,.2-.51,.3-.2,.51-.2,.3,.1,.51,.2c.1,.1,.2,.3,.2,.51s-.1,.3-.2,.51-.3,.2-.51,.2Zm.51,8.23h-1.02v-6.6h1.02v6.6Z" style="fill: #4c4c4c;"/>
    <path d="M118.11,27.66c-1.02,0-1.73-.3-2.34-.91-.61-.61-.91-1.42-.91-2.44,0-1.12,.3-1.93,.91-2.54s1.42-.91,2.44-.91,1.73,.3,2.34,.91,.81,1.42,.81,2.54-.3,1.93-.91,2.54c-.51,.51-1.32,.81-2.34,.81h0Zm.1-5.99c-.71,0-1.22,.2-1.62,.71s-.61,1.12-.61,1.93,.2,1.42,.61,1.83,.91,.71,1.62,.71,1.22-.2,1.52-.61,.51-1.02,.51-1.93-.2-1.42-.51-1.93-.91-.71-1.52-.71h0Z" style="fill: #4c4c4c;"/>
    <path d="M128.46,27.45h-1.02v-3.76c0-1.42-.51-2.13-1.52-2.13-.51,0-.91,.2-1.32,.61s-.51,.91-.51,1.52v3.76h-1.02v-6.6h1.02v1.12h0c.51-.81,1.22-1.22,2.13-1.22,.71,0,1.22,.2,1.62,.71s.61,1.12,.61,2.03v3.96h0Z" style="fill: #4c4c4c;"/>
    <path d="M135.78,24.41h-4.67c0,.71,.2,1.32,.61,1.73,.41,.41,.91,.61,1.52,.61,.71,0,1.42-.2,2.03-.71v1.02c-.61,.41-1.32,.61-2.23,.61s-1.63-.3-2.23-.91c-.51-.61-.81-1.42-.81-2.54,0-1.02,.3-1.83,.91-2.54s1.32-1.02,2.13-1.02,1.52,.3,2.03,.81,.71,1.32,.71,2.34v.61Zm-1.12-.81c0-.61-.1-1.12-.41-1.42-.3-.3-.71-.51-1.22-.51s-.91,.2-1.22,.51c-.3,.41-.61,.81-.61,1.42h3.45Z" style="fill: #4c4c4c;"/>
    <path d="M136.89,27.25v-1.12c.61,.41,1.22,.61,1.93,.61,.91,0,1.42-.3,1.42-.91,0-.2,0-.3-.1-.41s-.2-.2-.3-.3c-.1-.1-.3-.2-.51-.2-.2-.1-.41-.1-.61-.2-.3-.1-.51-.2-.81-.3-.2-.1-.41-.2-.51-.41-.1-.1-.2-.3-.3-.51s-.1-.41-.1-.61c0-.3,.1-.61,.2-.81s.3-.41,.61-.61c.2-.2,.51-.3,.81-.41s.61-.1,.91-.1c.61,0,1.12,.1,1.52,.3v1.02c-.51-.3-1.02-.51-1.63-.51-.2,0-.41,0-.51,.1-.2,0-.3,.1-.41,.2-.1,.1-.2,.2-.3,.3-.1,.1-.1,.2-.1,.41s0,.3,.1,.41,.1,.2,.3,.3c.1,.1,.3,.2,.41,.2,.2,.1,.41,.1,.61,.2,.3,.1,.51,.2,.81,.3,.2,.1,.41,.2,.61,.41,.2,.1,.3,.3,.41,.51s.1,.41,.1,.71-.1,.61-.2,.81-.3,.41-.61,.61c-.2,.2-.51,.3-.81,.41s-.61,.1-1.02,.1c-.81-.1-1.42-.3-1.93-.51h0Z" style="fill: #4c4c4c;"/>
    <path d="M152.13,27.45h-1.02v-1.12h0c-.51,.81-1.22,1.22-2.23,1.22-.81,0-1.52-.3-1.93-.91s-.71-1.42-.71-2.44c0-1.12,.3-1.93,.81-2.64s1.32-1.02,2.13-1.02,1.52,.41,1.93,1.02h0v-4.06h1.02v9.95h0Zm-1.02-2.95v-1.02c0-.51-.2-1.02-.51-1.32-.41-.41-.81-.51-1.32-.51-.61,0-1.12,.2-1.52,.71s-.51,1.12-.51,1.93,.2,1.32,.51,1.83,.81,.61,1.42,.61,1.02-.2,1.42-.61c.3-.41,.41-1.02,.51-1.63h0Z" style="fill: #4c4c4c;"/>
    <path d="M159.54,24.41h-4.67c0,.71,.2,1.32,.61,1.73s.91,.61,1.52,.61c.71,0,1.42-.2,2.03-.71v1.02c-.61,.41-1.32,.61-2.23,.61s-1.63-.3-2.13-.91-.81-1.42-.81-2.54c0-1.02,.3-1.83,.91-2.54s1.32-1.02,2.13-1.02,1.52,.3,2.03,.81,.71,1.32,.71,2.34l-.1,.61h0Zm-1.12-.81c0-.61-.1-1.12-.41-1.42-.3-.3-.71-.51-1.22-.51s-.91,.2-1.22,.51c-.3,.41-.61,.81-.61,1.42h3.45Z" style="fill: #4c4c4c;"/>
    <path d="M165.23,19.23c-.2,0-.3-.1-.51-.2s-.2-.3-.2-.51,.1-.41,.2-.51c.1-.1,.3-.2,.51-.2s.41,.1,.51,.2,.2,.3,.2,.51-.1,.3-.2,.51c-.1,.1-.3,.2-.51,.2Zm.51,8.23h-1.02v-6.6h1.02v6.6Z" style="fill: #4c4c4c;"/>
    <path d="M173.36,27.45h-1.02v-3.76c0-1.42-.51-2.13-1.52-2.13-.51,0-.91,.2-1.32,.61s-.51,.91-.51,1.52v3.76h-1.02v-6.6h1.02v1.12h0c.51-.81,1.22-1.22,2.13-1.22,.71,0,1.22,.2,1.63,.71s.61,1.12,.61,2.03v3.96h0Z" style="fill: #4c4c4c;"/>
    <path d="M175.89,19.23c-.2,0-.3-.1-.51-.2s-.2-.3-.2-.51,.1-.41,.2-.51c.1-.1,.3-.2,.51-.2s.41,.1,.51,.2,.2,.3,.2,.51-.1,.3-.2,.51c-.2,.1-.3,.2-.51,.2Zm.51,8.23h-1.02v-6.6h1.02v6.6Z" style="fill: #4c4c4c;"/>
    <path d="M183,27.15c-.51,.3-1.12,.51-1.83,.51-.91,0-1.73-.3-2.23-.91-.61-.61-.91-1.42-.91-2.34,0-1.12,.3-1.93,.91-2.64s1.42-1.02,2.44-1.02c.61,0,1.12,.1,1.52,.3v1.12c-.51-.3-1.02-.51-1.52-.51-.71,0-1.22,.2-1.63,.71-.41,.51-.61,1.12-.61,1.93s.2,1.42,.61,1.83c.41,.41,.91,.71,1.63,.71,.61,0,1.12-.2,1.63-.61v.91h0Z" style="fill: #4c4c4c;"/>
    <path d="M185.14,19.23c-.2,0-.3-.1-.51-.2s-.2-.3-.2-.51,.1-.41,.2-.51c.1-.1,.3-.2,.51-.2s.41,.1,.51,.2,.2,.3,.2,.51-.1,.3-.2,.51c-.2,.1-.3,.2-.51,.2Zm.51,8.23h-1.02v-6.6h1.02v6.6Z" style="fill: #4c4c4c;"/>
    <path d="M190.52,27.66c-1.02,0-1.73-.3-2.34-.91s-.91-1.42-.91-2.44c0-1.12,.3-1.93,.91-2.54s1.42-.91,2.44-.91,1.73,.3,2.34,.91,.81,1.42,.81,2.54-.3,1.93-.91,2.54c-.61,.51-1.32,.81-2.34,.81h0Zm.1-5.99c-.71,0-1.22,.2-1.63,.71-.41,.51-.61,1.12-.61,1.93s.2,1.42,.61,1.83,.91,.71,1.63,.71,1.22-.2,1.52-.61,.51-1.02,.51-1.93-.2-1.42-.51-1.93-.91-.71-1.52-.71h0Z" style="fill: #4c4c4c;"/>
    <path d="M204.64,27.45h-1.02v-1.12h0c-.51,.81-1.22,1.22-2.23,1.22-.81,0-1.52-.3-1.93-.91s-.71-1.42-.71-2.44c0-1.12,.3-1.93,.81-2.64s1.32-1.02,2.13-1.02,1.52,.41,1.93,1.02h0v-4.06h1.02v9.95h0Zm-1.02-2.95v-1.02c0-.51-.2-1.02-.51-1.32-.41-.41-.81-.51-1.32-.51-.61,0-1.12,.2-1.52,.71s-.51,1.12-.51,1.93,.2,1.32,.51,1.83,.81,.61,1.42,.61,1.02-.2,1.42-.61c.3-.41,.51-1.02,.51-1.63h0Z" style="fill: #4c4c4c;"/>
    <path d="M212.05,24.41h-4.67c0,.71,.2,1.32,.61,1.73s.91,.61,1.52,.61c.71,0,1.42-.2,2.03-.71v1.02c-.61,.41-1.32,.61-2.23,.61s-1.63-.3-2.13-.91-.81-1.42-.81-2.54c0-1.02,.3-1.83,.91-2.54s1.32-1.02,2.13-1.02,1.52,.3,2.03,.81,.71,1.32,.71,2.34l-.1,.61h0Zm-1.02-.81c0-.61-.1-1.12-.41-1.42-.3-.3-.71-.51-1.22-.51s-.91,.2-1.22,.51c-.3,.41-.61,.81-.61,1.42h3.45Z" style="fill: #4c4c4c;"/>
    <path d="M216.82,27.25v-1.12c.61,.41,1.22,.61,1.93,.61,.91,0,1.42-.3,1.42-.91,0-.2,0-.3-.1-.41s-.2-.2-.3-.3-.3-.2-.51-.2c-.2-.1-.41-.1-.61-.2-.3-.1-.51-.2-.81-.3-.2-.1-.41-.2-.51-.41s-.2-.3-.3-.51-.1-.41-.1-.61c0-.3,.1-.61,.2-.81s.3-.41,.61-.61c.2-.2,.51-.3,.81-.41s.61-.1,.91-.1c.61,0,1.12,.1,1.52,.3v1.02c-.51-.3-1.02-.51-1.63-.51-.2,0-.41,0-.51,.1-.2,0-.3,.1-.41,.2-.1,.1-.2,.2-.3,.3-.1,.1-.1,.2-.1,.41s0,.3,.1,.41,.1,.2,.3,.3c.1,.1,.3,.2,.41,.2,.2,.1,.41,.1,.61,.2,.3,.1,.51,.2,.81,.3,.2,.1,.41,.2,.61,.41,.2,.1,.3,.3,.41,.51s.1,.41,.1,.71-.1,.61-.2,.81-.3,.41-.61,.61-.51,.3-.81,.41-.61,.1-1.02,.1c-.81-.1-1.42-.3-1.93-.51h0Z" style="fill: #4c4c4c;"/>
    <path d="M228.1,24.41h-4.67c0,.71,.2,1.32,.61,1.73s.91,.61,1.52,.61c.71,0,1.42-.2,2.03-.71v1.02c-.61,.41-1.32,.61-2.23,.61s-1.63-.3-2.13-.91-.81-1.42-.81-2.54c0-1.02,.3-1.83,.91-2.54s1.32-1.02,2.13-1.02,1.52,.3,2.03,.81,.71,1.32,.71,2.34l-.1,.61h0Zm-1.02-.81c0-.61-.1-1.12-.41-1.42-.3-.3-.71-.51-1.22-.51s-.91,.2-1.22,.51c-.3,.41-.61,.81-.61,1.42h3.45Z" style="fill: #4c4c4c;"/>
    <path d="M229.32,27.25v-1.12c.61,.41,1.22,.61,1.93,.61,.91,0,1.42-.3,1.42-.91,0-.2,0-.3-.1-.41s-.2-.2-.3-.3-.3-.2-.51-.2c-.2-.1-.41-.1-.61-.2-.3-.1-.51-.2-.81-.3-.2-.1-.41-.2-.51-.41s-.2-.3-.3-.51-.1-.41-.1-.61c0-.3,.1-.61,.2-.81s.3-.41,.61-.61c.2-.2,.51-.3,.81-.41s.61-.1,.91-.1c.61,0,1.12,.1,1.52,.3v1.02c-.51-.3-1.02-.51-1.63-.51-.2,0-.41,0-.51,.1-.2,0-.3,.1-.41,.2-.1,.1-.2,.2-.3,.3-.1,.1-.1,.2-.1,.41s0,.3,.1,.41,.1,.2,.3,.3c.1,.1,.3,.2,.41,.2,.2,.1,.41,.1,.61,.2,.3,.1,.51,.2,.81,.3,.2,.1,.41,.2,.61,.41,.2,.1,.3,.3,.41,.51s.1,.41,.1,.71-.1,.61-.2,.81-.3,.41-.61,.61-.51,.3-.81,.41-.61,.1-1.02,.1c-.91-.1-1.42-.3-1.93-.51h0Z" style="fill: #4c4c4c;"/>
    <path d="M235.82,19.23c-.2,0-.3-.1-.51-.2s-.2-.3-.2-.51,.1-.41,.2-.51c.1-.1,.3-.2,.51-.2s.41,.1,.51,.2,.2,.3,.2,.51-.1,.3-.2,.51c-.2,.1-.3,.2-.51,.2Zm.51,8.23h-1.02v-6.6h1.02v6.6Z" style="fill: #4c4c4c;"/>
    <path d="M241.2,27.66c-1.02,0-1.73-.3-2.34-.91s-.91-1.42-.91-2.44c0-1.12,.3-1.93,.91-2.54,.61-.61,1.42-.91,2.44-.91s1.73,.3,2.34,.91,.81,1.42,.81,2.54-.3,1.93-.91,2.54c-.51,.51-1.32,.81-2.34,.81h0Zm.1-5.99c-.71,0-1.22,.2-1.63,.71-.41,.51-.61,1.12-.61,1.93s.2,1.42,.61,1.83,.91,.71,1.63,.71,1.22-.2,1.52-.61,.51-1.02,.51-1.93-.2-1.42-.51-1.93-.91-.71-1.52-.71h0Zm1.52-4.06l-1.73,2.13h-.81l1.42-2.13h1.12Z" style="fill: #4c4c4c;"/>
    <path d="M251.56,27.45h-1.02v-3.76c0-1.42-.51-2.13-1.52-2.13-.51,0-.91,.2-1.32,.61s-.51,.91-.51,1.52v3.76h-1.02v-6.6h1.02v1.12h0c.51-.81,1.22-1.22,2.13-1.22,.71,0,1.22,.2,1.63,.71,.41,.51,.61,1.12,.61,2.03v3.96h0Z" style="fill: #4c4c4c;"/>
  </g>
  <g>
    <rect x="49" y="9.1" width="26.8" height="26.8" style="fill: none;"/>
    <path d="M71.3,27.3v4.1h-4.5v-2.2h-2.2v-2.2h-2.2v-1.8c-.9,.5-1.8,.7-2.8,.7-1.1,0-2.2-.3-3.1-.8-.5-.3-.9-.6-1.2-1-.4-.4-.7-.8-1-1.2s-.5-1-.6-1.5-.2-1.1-.2-1.6c0-1.1,.3-2.2,.8-3.1,.3-.5,.6-.9,1-1.2s.8-.7,1.2-1,1-.5,1.5-.6,1.1-.2,1.6-.2c1.1,0,2.2,.3,3.1,.8,.5,.3,.9,.6,1.2,1,.4,.4,.7,.8,1,1.2s.5,1,.6,1.5,.2,1.1,.2,1.6c0,.3,0,.6-.1,.9s-.1,.6-.2,.9l5.9,5.7h0Zm-1.1,.5l-6-6c.1-.3,.2-.7,.3-1s.1-.7,.1-1c0-.7-.1-1.3-.4-2-.2-.6-.6-1.1-1.1-1.6s-1-.8-1.6-1.1-1.3-.4-2-.4-1.3,.1-2,.4c-.6,.2-1.1,.6-1.6,1.1s-.8,1-1.1,1.6-.4,1.3-.4,2,.1,1.3,.4,2c.2,.6,.6,1.1,1.1,1.6s1,.8,1.6,1.1c1.2,.5,2.4,.5,3.6,.1,.5-.2,1-.5,1.5-.8h.8v2.2h2.2v2.2h2.2v2.2h2.2l.2-2.6h0Zm-12.3-10.8c.2,0,.3,0,.4,.1,.1,.1,.2,.1,.3,.2s.2,.2,.2,.4c.1,.1,.1,.3,.1,.4s0,.3-.1,.4-.1,.2-.2,.4c-.1,.1-.2,.2-.4,.2s-.3,.1-.4,.1c-.2,0-.3,0-.4-.1-.1-.1-.2-.1-.3-.2s-.2-.2-.2-.4c-.1-.1-.1-.3-.1-.4s0-.3,.1-.4,.1-.2,.2-.4c.1-.1,.2-.2,.4-.2s.3-.1,.4-.1Z" style="fill: #404040;"/>
  </g>
</svg>