<?xml version="1.0" encoding="UTF-8"?>
<svg id="Layer_1" data-name="Layer 1" xmlns="http://www.w3.org/2000/svg" viewBox="0 0 420 322.4">
  <rect x="-6" y="-15.33" width="432" height="356" style="fill: #fff;"/>
  <path d="M42.4,40h25.2v25.2h-25.2s0-25.2,0-25.2Z" style="fill: #fff;"/>
  <path d="M43.5,41.1h11v11h-11v-11Z" style="fill: #e24e3c;"/>
  <path d="M55.6,41.1h11v11h-11v-11Z" style="fill: #87bc2a;"/>
  <path d="M43.5,53.2h11v10.9h-11s0-10.9,0-10.9Z" style="fill: #37a9db;"/>
  <path d="M55.6,53.2h11v10.9h-11s0-10.9,0-10.9Z" style="fill: #f4b019;"/>
  <g>
    <path d="M85.5,60.3h-2v-8c0-.7,0-1.5,.1-2.4h0c-.1,.5-.2,.9-.3,1.2l-3.7,9.2h-1.4l-3.7-9.1c-.1-.3-.2-.7-.3-1.2h0c.1,.5,.1,1.3,.1,2.4v8h-1.9v-12.5h2.9l3.2,8.2c.2,.6,.4,1.1,.5,1.4h0c.2-.7,.4-1.1,.5-1.4l3.3-8.2h2.8l-.1,12.4h0Z" style="fill: #767676;"/>
    <path d="M89.4,49.6c-.3,0-.6-.1-.8-.3s-.3-.5-.3-.8,.1-.6,.3-.8c.2-.2,.5-.3,.8-.3s.6,.1,.9,.3c.2,.2,.3,.5,.3,.8s-.1,.6-.3,.8c-.3,.2-.6,.3-.9,.3h0Zm.9,10.7h-2v-8.8h2v8.8Z" style="fill: #767676;"/>
    <path d="M99.2,59.9c-.7,.4-1.5,.6-2.5,.6-1.3,0-2.4-.4-3.2-1.2s-1.2-1.9-1.2-3.2c0-1.5,.4-2.6,1.3-3.5s2-1.3,3.5-1.3c.8,0,1.5,.1,2.1,.4v1.9c-.6-.5-1.3-.7-2-.7-.8,0-1.5,.3-2.1,.8-.5,.6-.8,1.3-.8,2.2s.2,1.6,.8,2.2,1.2,.8,2,.8c.7,0,1.4-.2,2-.8l.1,1.8h0Z" style="fill: #767676;"/>
    <path d="M106.3,53.4c-.2-.2-.6-.3-1-.3-.6,0-1.1,.3-1.5,.8s-.6,1.3-.6,2.2v4.2h-2v-8.8h2v1.8h0c.2-.6,.5-1.1,.9-1.5s.8-.5,1.3-.5c.4,0,.6,0,.8,.2l.1,1.9h0Z" style="fill: #767676;"/>
    <path d="M111.5,60.5c-1.4,0-2.4-.4-3.2-1.2s-1.3-2-1.3-3.3c0-1.5,.4-2.6,1.3-3.5s2-1.2,3.4-1.2,2.4,.4,3.2,1.2,1.2,1.9,1.2,3.4-.4,2.5-1.2,3.4-2,1.2-3.4,1.2Zm.1-7.6c-.8,0-1.4,.3-1.8,.8s-.7,1.3-.7,2.2,.2,1.7,.7,2.2,1.1,.8,1.8,.8,1.4-.3,1.8-.8,.6-1.3,.6-2.2-.2-1.7-.6-2.2-1-.8-1.8-.8Z" style="fill: #767676;"/>
    <path d="M117.5,60v-1.8c.7,.6,1.6,.8,2.5,.8,1.2,0,1.8-.3,1.8-1.1,0-.2-.1-.4-.2-.5s-.2-.3-.4-.4l-.6-.3c-.2-.1-.5-.2-.8-.3-.4-.1-.7-.3-1-.5s-.5-.3-.7-.5-.3-.4-.4-.7-.2-.6-.2-.9c0-.4,.1-.8,.3-1.1,.2-.3,.5-.6,.8-.8s.7-.4,1.2-.5,.9-.2,1.3-.2c.8,0,1.5,.1,2.2,.4v1.7c-.6-.4-1.3-.6-2.1-.6-.2,0-.5,0-.7,.1-.2,0-.4,.1-.5,.2s-.3,.2-.3,.3-.1,.3-.1,.4c0,.2,0,.3,.1,.5s.2,.2,.4,.3,.3,.2,.6,.3,.5,.2,.8,.3c.4,.2,.7,.3,1,.5s.6,.3,.8,.5c.2,.2,.4,.4,.5,.7s.2,.6,.2,1c0,.5-.1,.8-.3,1.2-.2,.3-.5,.6-.8,.8s-.7,.4-1.2,.5-.9,.2-1.4,.2c-1.2,0-2.1-.2-2.8-.5h0Z" style="fill: #767676;"/>
    <path d="M129.6,60.5c-1.4,0-2.4-.4-3.2-1.2s-1.2-1.9-1.2-3.3c0-1.5,.4-2.6,1.3-3.5s2-1.2,3.4-1.2,2.4,.4,3.2,1.2,1.1,1.9,1.1,3.4-.4,2.5-1.2,3.4-2,1.2-3.4,1.2h0Zm.1-7.6c-.8,0-1.4,.3-1.8,.8-.4,.5-.7,1.3-.7,2.2s.2,1.7,.7,2.2,1.1,.8,1.8,.8,1.4-.3,1.8-.8,.6-1.3,.6-2.2-.2-1.7-.6-2.2-1.1-.8-1.8-.8Z" style="fill: #767676;"/>
    <path d="M140.9,48.9c-.3-.2-.6-.2-.9-.2-1,0-1.4,.5-1.4,1.6v1.2h2v1.5h-2v7.2h-2v-7.2h-1.6v-1.6h1.5v-1.4c0-.9,.3-1.7,.9-2.2s1.4-.8,2.3-.8c.5,0,.9,0,1.2,.2v1.7h0Z" style="fill: #767676;"/>
    <path d="M146.9,60.2c-.4,.2-.9,.3-1.5,.3-1.7,0-2.6-.8-2.6-2.5v-5h-1.5v-1.6h1.5v-2l2-.6v2.6h2.1v1.6h-2.1v4.4c0,.5,.1,.9,.3,1.1,.2,.2,.5,.3,.9,.3,.3,0,.6-.1,.9-.3v1.7h0Z" style="fill: #767676;"/>
  </g>
  <g>
    <path d="M130.09,101.14l-4.41,11.9h-1.54l-4.32-11.9h1.55l3.3,9.44c.06,.15,.1,.31,.14,.49,.04,.18,.07,.37,.1,.56h.03c.02-.17,.06-.34,.1-.52s.1-.36,.17-.55l3.36-9.42h1.5Z" style="fill: #333;"/>
    <path d="M137.37,109.1h-6.01c.02,.96,.28,1.7,.76,2.21s1.16,.78,2.04,.78c.38,0,.76-.06,1.15-.17s.77-.29,1.14-.54l.63,.97c-.48,.31-.96,.54-1.44,.68s-1.01,.22-1.59,.22c-1.28,0-2.29-.38-3-1.15-.72-.76-1.08-1.83-1.09-3.2,0-1.37,.36-2.47,1.08-3.3,.73-.84,1.67-1.25,2.83-1.25s1.97,.36,2.58,1.08c.61,.72,.92,1.72,.92,3v.67Zm-1.39-1.11c0-.79-.2-1.4-.57-1.84-.38-.44-.89-.66-1.55-.66s-1.2,.23-1.65,.68-.73,1.06-.83,1.82h4.6Z" style="fill: #333;"/>
    <path d="M143.62,105.7c-.11-.03-.2-.06-.28-.07-.08-.01-.19-.02-.31-.02-.69,0-1.24,.29-1.64,.88-.4,.59-.6,1.33-.6,2.21v4.33h-1.36v-8.5h1.36v1.69h.03c.19-.6,.49-1.05,.89-1.37s.86-.47,1.38-.47c.17,0,.32,0,.44,.02,.12,.02,.23,.04,.32,.08l-.22,1.21Z" style="fill: #333;"/>
    <path d="M146.03,102.51c-.28,0-.51-.09-.7-.28s-.28-.41-.28-.68,.09-.5,.28-.69,.42-.28,.7-.28,.51,.09,.7,.28,.28,.41,.28,.69-.09,.5-.28,.68-.42,.28-.7,.28Zm.66,10.53h-1.36v-8.5h1.36v8.5Z" style="fill: #333;"/>
    <path d="M153.51,101.57c-.16-.05-.29-.09-.42-.11-.12-.02-.26-.03-.39-.03-.46,0-.81,.12-1.04,.37s-.34,.61-.34,1.1v1.64h1.99v1.16h-1.99v7.34h-1.35v-7.34h-1.45v-1.16h1.45v-1.71c0-.8,.25-1.43,.74-1.88,.49-.45,1.17-.68,2.03-.68,.21,0,.4,.02,.57,.05s.35,.08,.53,.14l-.32,1.11Z" style="fill: #333;"/>
    <path d="M155.47,102.51c-.28,0-.51-.09-.7-.28s-.28-.41-.28-.68,.09-.5,.28-.69,.42-.28,.7-.28,.51,.09,.7,.28,.28,.41,.28,.69-.09,.5-.28,.68-.42,.28-.7,.28Zm.66,10.53h-1.36v-8.5h1.36v8.5Z" style="fill: #333;"/>
    <path d="M164.87,112.54c-.39,.24-.79,.42-1.18,.54s-.82,.17-1.29,.17c-1.2,0-2.18-.37-2.94-1.11s-1.15-1.79-1.15-3.15,.39-2.5,1.16-3.35c.77-.85,1.83-1.28,3.18-1.28,.44,0,.85,.05,1.25,.16,.4,.1,.79,.28,1.2,.51l-.57,1c-.31-.18-.62-.31-.93-.39-.3-.08-.64-.12-1-.12-.93,0-1.65,.31-2.15,.94s-.75,1.42-.75,2.38c0,1.06,.26,1.87,.78,2.43,.52,.56,1.2,.84,2.03,.84,.27,0,.55-.04,.85-.13s.59-.22,.89-.4l.61,.98Z" style="fill: #333;"/>
    <path d="M172.76,113.04h-1.36v-1.33h-.03c-.29,.51-.66,.89-1.08,1.15s-.93,.38-1.5,.38c-.8,0-1.44-.23-1.93-.7-.49-.46-.74-1.08-.74-1.85,0-.72,.25-1.33,.75-1.8s1.2-.78,2.12-.91l2.42-.32v-.19c0-.71-.17-1.22-.5-1.52s-.78-.45-1.33-.45c-.44,0-.87,.08-1.28,.25-.41,.17-.79,.42-1.15,.76l-.8-.82c.48-.46,.98-.8,1.52-1.01,.54-.22,1.13-.32,1.79-.32,1.03,0,1.8,.26,2.32,.79,.52,.53,.78,1.32,.78,2.38v5.53Zm-1.36-3.45v-.85l-2.05,.28c-.62,.09-1.1,.25-1.41,.47-.32,.23-.47,.58-.47,1.07s.15,.9,.44,1.17,.66,.4,1.08,.4c.74,0,1.32-.24,1.76-.72s.65-1.09,.65-1.83Z" style="fill: #333;"/>
    <path d="M181.37,112.54c-.39,.24-.79,.42-1.18,.54s-.82,.17-1.29,.17c-1.2,0-2.18-.37-2.94-1.11s-1.15-1.79-1.15-3.15,.39-2.5,1.16-3.35c.77-.85,1.83-1.28,3.18-1.28,.44,0,.85,.05,1.25,.16,.4,.1,.79,.28,1.2,.51l-.57,1c-.31-.18-.62-.31-.93-.39-.3-.08-.64-.12-1-.12-.93,0-1.65,.31-2.15,.94s-.75,1.42-.75,2.38c0,1.06,.26,1.87,.78,2.43,.52,.56,1.2,.84,2.03,.84,.27,0,.55-.04,.85-.13s.59-.22,.89-.4l.61,.98Z" style="fill: #333;"/>
    <path d="M183.94,102.51c-.28,0-.51-.09-.7-.28s-.28-.41-.28-.68,.09-.5,.28-.69,.42-.28,.7-.28,.51,.09,.7,.28,.28,.41,.28,.69-.09,.5-.28,.68-.42,.28-.7,.28Zm.66,10.53h-1.36v-8.5h1.36v8.5Z" style="fill: #333;"/>
    <path d="M190.92,113.24c-1.26,0-2.26-.4-3.01-1.19s-1.12-1.85-1.12-3.16c0-1.42,.39-2.53,1.16-3.34s1.83-1.21,3.17-1.21c1.27,0,2.26,.38,2.97,1.17,.71,.79,1.07,1.87,1.07,3.25s-.38,2.45-1.15,3.26c-.77,.81-1.79,1.22-3.08,1.22Zm.1-1.15c.88,0,1.56-.29,2.03-.86,.47-.57,.71-1.38,.71-2.43s-.24-1.89-.71-2.46c-.48-.57-1.15-.86-2.03-.86s-1.57,.3-2.08,.9-.76,1.42-.76,2.46,.26,1.8,.77,2.38c.52,.58,1.2,.87,2.07,.87Zm-.04-9.16h-1.05l1.85-2.72h1.38l-2.18,2.72Z" style="fill: #333;"/>
    <path d="M204.38,113.04h-1.36v-4.85c0-.9-.17-1.58-.49-2.03s-.82-.68-1.48-.68-1.24,.26-1.69,.77-.67,1.16-.67,1.94v4.85h-1.36v-8.5h1.36v1.41h.03c.32-.54,.71-.94,1.18-1.21s1-.4,1.61-.4c.93,0,1.64,.3,2.13,.9,.49,.6,.74,1.47,.74,2.6v5.2Z" style="fill: #333;"/>
    <path d="M220.17,112.44c-.58,.28-1.14,.48-1.68,.61-.55,.13-1.14,.19-1.79,.19-1.8,0-3.2-.54-4.2-1.63-1-1.09-1.5-2.52-1.5-4.29,0-1.94,.56-3.49,1.67-4.64,1.12-1.15,2.57-1.73,4.36-1.73,.56,0,1.08,.05,1.57,.16,.49,.11,1,.27,1.52,.51l-.51,1.15c-.44-.19-.86-.33-1.27-.42-.41-.09-.85-.13-1.33-.13-1.39,0-2.5,.45-3.33,1.35-.82,.9-1.23,2.13-1.23,3.68,0,1.46,.39,2.61,1.18,3.47,.79,.86,1.83,1.29,3.13,1.29,.48,0,.95-.05,1.42-.16s.93-.28,1.42-.51l.56,1.13Z" style="fill: #333;"/>
    <path d="M225.68,113.24c-1.26,0-2.26-.4-3.01-1.19s-1.12-1.85-1.12-3.16c0-1.42,.39-2.53,1.16-3.34s1.83-1.21,3.17-1.21c1.27,0,2.26,.38,2.97,1.17,.71,.79,1.07,1.87,1.07,3.25s-.38,2.45-1.15,3.26c-.77,.81-1.79,1.22-3.08,1.22Zm.1-1.15c.88,0,1.56-.29,2.03-.86,.47-.57,.71-1.38,.71-2.43s-.24-1.89-.71-2.46c-.48-.57-1.15-.86-2.03-.86s-1.57,.3-2.08,.9-.76,1.42-.76,2.46,.26,1.8,.77,2.38c.52,.58,1.2,.87,2.07,.87Z" style="fill: #333;"/>
    <path d="M244.16,113.04h-1.36v-4.88c0-.94-.15-1.62-.44-2.04-.29-.42-.78-.63-1.46-.63-.58,0-1.08,.27-1.48,.8-.41,.53-.61,1.17-.61,1.91v4.85h-1.36v-5.05c0-.84-.16-1.46-.48-1.88-.32-.42-.8-.63-1.45-.63-.6,0-1.09,.25-1.48,.75s-.58,1.15-.58,1.96v4.85h-1.36v-8.5h1.36v1.34h.03c.3-.51,.68-.9,1.12-1.16,.44-.26,.95-.39,1.52-.39s1.09,.16,1.52,.49c.43,.32,.73,.75,.89,1.27,.32-.59,.71-1.03,1.18-1.32,.47-.29,1.02-.44,1.64-.44,.94,0,1.64,.29,2.1,.86s.7,1.44,.7,2.6v5.24Z" style="fill: #333;"/>
    <path d="M248.13,111.81h-.03v5.14h-1.36v-12.41h1.36v1.49h.03c.34-.56,.75-.99,1.24-1.27,.49-.28,1.06-.42,1.7-.42,1.1,0,1.95,.38,2.56,1.14,.62,.76,.92,1.78,.92,3.06,0,1.42-.35,2.56-1.04,3.42-.69,.85-1.64,1.28-2.84,1.28-.55,0-1.03-.12-1.46-.36-.43-.24-.79-.59-1.09-1.07Zm-.03-3.43v1.19c0,.7,.23,1.3,.68,1.79,.46,.49,1.04,.73,1.74,.73,.82,0,1.47-.32,1.94-.95s.7-1.51,.7-2.63c0-.95-.22-1.69-.66-2.22-.44-.54-1.03-.81-1.78-.81-.79,0-1.43,.28-1.91,.83-.48,.55-.72,1.24-.72,2.07Z" style="fill: #333;"/>
    <path d="M256.72,113.04v-12.58h1.36v12.58h-1.36Z" style="fill: #333;"/>
    <path d="M267.67,109.1h-6.01c.02,.96,.28,1.7,.76,2.21s1.16,.78,2.04,.78c.38,0,.76-.06,1.15-.17s.77-.29,1.14-.54l.63,.97c-.48,.31-.96,.54-1.44,.68s-1.01,.22-1.59,.22c-1.28,0-2.29-.38-3-1.15-.72-.76-1.08-1.83-1.09-3.2,0-1.37,.36-2.47,1.08-3.3,.73-.84,1.67-1.25,2.83-1.25s1.97,.36,2.58,1.08c.61,.72,.92,1.72,.92,3v.67Zm-1.39-1.11c0-.79-.2-1.4-.57-1.84-.38-.44-.89-.66-1.55-.66s-1.2,.23-1.65,.68-.73,1.06-.83,1.82h4.6Z" style="fill: #333;"/>
    <path d="M273.78,112.94c-.23,.09-.46,.17-.68,.21-.22,.05-.48,.07-.76,.07-.67,0-1.21-.2-1.59-.59s-.58-.98-.58-1.75v-5.17h-1.46v-1.16h1.46v-2.08l1.36-.44v2.52h2.14v1.16h-2.14v5.01c0,.49,.09,.84,.26,1.05,.17,.21,.44,.32,.78,.32,.17,0,.33-.02,.48-.06,.15-.04,.28-.08,.39-.13l.33,1.04Z" style="fill: #333;"/>
    <path d="M281.51,113.04h-1.36v-1.33h-.03c-.29,.51-.66,.89-1.08,1.15s-.93,.38-1.5,.38c-.8,0-1.44-.23-1.93-.7-.49-.46-.74-1.08-.74-1.85,0-.72,.25-1.33,.75-1.8s1.2-.78,2.12-.91l2.42-.32v-.19c0-.71-.17-1.22-.5-1.52s-.78-.45-1.33-.45c-.44,0-.87,.08-1.28,.25-.41,.17-.79,.42-1.15,.76l-.8-.82c.48-.46,.98-.8,1.52-1.01,.54-.22,1.13-.32,1.79-.32,1.03,0,1.8,.26,2.32,.79,.52,.53,.78,1.32,.78,2.38v5.53Zm-1.36-3.45v-.85l-2.05,.28c-.62,.09-1.1,.25-1.41,.47-.32,.23-.47,.58-.47,1.07s.15,.9,.44,1.17,.66,.4,1.08,.4c.74,0,1.32-.24,1.76-.72s.65-1.09,.65-1.83Z" style="fill: #333;"/>
    <path d="M290,111.6c-.32,.55-.71,.96-1.2,1.23-.48,.27-1.06,.41-1.72,.41-1.07,0-1.92-.38-2.56-1.14-.64-.76-.96-1.8-.96-3.11,0-1.41,.35-2.53,1.06-3.38,.71-.85,1.65-1.27,2.83-1.27,.59,0,1.09,.12,1.52,.34,.42,.23,.77,.57,1.03,1.03h.03v-5.26h1.36v12.58h-1.36v-1.44h-.03Zm-5.05-2.67c0,.98,.23,1.75,.68,2.32,.46,.57,1.07,.85,1.84,.85s1.38-.27,1.85-.82c.47-.55,.71-1.24,.71-2.08v-1.25c0-.69-.23-1.27-.68-1.74-.46-.48-1.03-.71-1.72-.71-.83,0-1.48,.3-1.96,.91s-.71,1.45-.71,2.52Z" style="fill: #333;"/>
    <path d="M300.17,113.04h-1.36v-1.33h-.03c-.29,.51-.66,.89-1.08,1.15s-.93,.38-1.5,.38c-.8,0-1.44-.23-1.93-.7-.49-.46-.74-1.08-.74-1.85,0-.72,.25-1.33,.75-1.8s1.2-.78,2.12-.91l2.42-.32v-.19c0-.71-.17-1.22-.5-1.52s-.78-.45-1.33-.45c-.44,0-.87,.08-1.28,.25-.41,.17-.79,.42-1.15,.76l-.8-.82c.48-.46,.98-.8,1.52-1.01,.54-.22,1.13-.32,1.79-.32,1.03,0,1.8,.26,2.32,.79,.52,.53,.78,1.32,.78,2.38v5.53Zm-1.36-3.45v-.85l-2.05,.28c-.62,.09-1.1,.25-1.41,.47-.32,.23-.47,.58-.47,1.07s.15,.9,.44,1.17,.66,.4,1.08,.4c.74,0,1.32-.24,1.76-.72s.65-1.09,.65-1.83Z" style="fill: #333;"/>
  </g>
  <path d="M210,141.33c11.77,0,21.33,9.56,21.33,21.33s-9.56,21.33-21.33,21.33-21.33-9.56-21.33-21.33,9.56-21.33,21.33-21.33Zm0,1.78c10.79,0,19.56,8.76,19.56,19.56s-8.76,19.56-19.56,19.56-19.56-8.76-19.56-19.56,8.76-19.56,19.56-19.56Zm12.44,13.26l-16.01,17-8.88-10.43,1.35-1.15,7.59,8.92,14.65-15.56s1.29,1.22,1.29,1.22Z" style="fill: #176eaf; fill-rule: evenodd;"/>
  <g>
    <path d="M97.4,215.25h-4.36v-8.4h.98v7.51h3.38v.89Z" style="fill: #767676;"/>
    <path d="M102.81,215.25h-.96v-.94h-.02c-.21,.36-.46,.63-.76,.81s-.66,.27-1.06,.27c-.56,0-1.02-.16-1.37-.49s-.52-.76-.52-1.31c0-.51,.18-.94,.53-1.27s.85-.55,1.49-.64l1.71-.23v-.13c0-.5-.12-.86-.35-1.08s-.55-.32-.94-.32c-.31,0-.61,.06-.9,.18s-.56,.3-.81,.54l-.56-.58c.34-.32,.69-.56,1.07-.71s.8-.23,1.27-.23c.73,0,1.27,.19,1.64,.56s.55,.93,.55,1.68v3.9Zm-.96-2.44v-.6l-1.45,.2c-.44,.06-.77,.17-1,.33s-.33,.41-.33,.76,.1,.63,.31,.82,.46,.28,.76,.28c.52,0,.93-.17,1.24-.51s.46-.77,.46-1.29Z" style="fill: #767676;"/>
    <path d="M112.67,209.25l-2.39,6h-.94l-2.27-6h1.05l1.52,4.36c.05,.16,.1,.31,.13,.45s.06,.27,.08,.39h.02c.02-.15,.04-.3,.08-.43s.07-.26,.11-.38l1.59-4.38h1.01Z" style="fill: #767676;"/>
    <path d="M118.52,212.47h-4.24c.02,.68,.19,1.2,.54,1.56s.82,.55,1.44,.55c.27,0,.54-.04,.81-.12s.54-.21,.81-.38l.45,.69c-.34,.22-.68,.38-1.02,.48s-.71,.15-1.12,.15c-.91,0-1.61-.27-2.12-.81s-.76-1.29-.77-2.26,.25-1.74,.76-2.33,1.18-.88,2-.88,1.39,.25,1.82,.76,.65,1.22,.65,2.12v.47Zm-.98-.79c0-.55-.14-.99-.4-1.3s-.63-.47-1.1-.47-.84,.16-1.16,.48-.51,.75-.58,1.29h3.25Z" style="fill: #767676;"/>
    <path d="M122.94,210.07c-.07-.02-.14-.04-.2-.05s-.13-.01-.22-.01c-.49,0-.87,.21-1.15,.62s-.42,.94-.42,1.56v3.06h-.96v-6h.96v1.19h.02c.14-.42,.35-.74,.63-.96s.61-.33,.97-.33c.12,0,.22,0,.31,.02s.16,.03,.23,.05l-.16,.86Z" style="fill: #767676;"/>
    <path d="M124.64,207.81c-.2,0-.36-.07-.49-.2s-.2-.29-.2-.48,.07-.35,.2-.48,.3-.2,.49-.2,.36,.07,.49,.2,.2,.29,.2,.48-.07,.35-.2,.48-.3,.2-.49,.2Zm.47,7.44h-.96v-6h.96v6Z" style="fill: #767676;"/>
    <path d="M129.92,207.15c-.11-.04-.21-.06-.3-.08s-.18-.02-.28-.02c-.33,0-.57,.09-.73,.26s-.24,.43-.24,.77v1.16h1.41v.82h-1.41v5.18h-.96v-5.18h-1.03v-.82h1.03v-1.21c0-.57,.17-1.01,.52-1.33s.82-.48,1.43-.48c.15,0,.28,.01,.4,.03s.25,.05,.38,.1l-.23,.79Z" style="fill: #767676;"/>
    <path d="M131.3,207.81c-.2,0-.36-.07-.49-.2s-.2-.29-.2-.48,.07-.35,.2-.48,.3-.2,.49-.2,.36,.07,.49,.2,.2,.29,.2,.48-.07,.35-.2,.48-.3,.2-.49,.2Zm.47,7.44h-.96v-6h.96v6Z" style="fill: #767676;"/>
    <path d="M137.94,214.89c-.28,.17-.55,.3-.83,.38s-.58,.12-.91,.12c-.84,0-1.54-.26-2.08-.79s-.81-1.27-.81-2.23,.27-1.77,.82-2.37,1.29-.9,2.25-.9c.31,0,.6,.04,.88,.11s.56,.2,.85,.36l-.4,.7c-.22-.12-.44-.22-.66-.28s-.45-.09-.7-.09c-.66,0-1.17,.22-1.52,.66s-.53,1-.53,1.68c0,.75,.18,1.32,.55,1.72s.85,.59,1.43,.59c.19,0,.39-.03,.6-.09s.42-.16,.63-.28l.43,.69Z" style="fill: #767676;"/>
    <path d="M143.51,215.25h-.96v-.94h-.02c-.21,.36-.46,.63-.76,.81s-.66,.27-1.06,.27c-.56,0-1.02-.16-1.37-.49s-.52-.76-.52-1.31c0-.51,.18-.94,.53-1.27s.85-.55,1.49-.64l1.71-.23v-.13c0-.5-.12-.86-.35-1.08s-.55-.32-.94-.32c-.31,0-.61,.06-.9,.18s-.56,.3-.81,.54l-.56-.58c.34-.32,.69-.56,1.07-.71s.8-.23,1.27-.23c.73,0,1.27,.19,1.64,.56s.55,.93,.55,1.68v3.9Zm-.96-2.44v-.6l-1.45,.2c-.44,.06-.77,.17-1,.33s-.33,.41-.33,.76,.1,.63,.31,.82,.46,.28,.76,.28c.52,0,.93-.17,1.24-.51s.46-.77,.46-1.29Z" style="fill: #767676;"/>
    <path d="M149.58,214.89c-.28,.17-.55,.3-.83,.38s-.58,.12-.91,.12c-.84,0-1.54-.26-2.08-.79s-.81-1.27-.81-2.23,.27-1.77,.82-2.37,1.29-.9,2.25-.9c.31,0,.6,.04,.88,.11s.56,.2,.85,.36l-.4,.7c-.22-.12-.44-.22-.66-.28s-.45-.09-.7-.09c-.66,0-1.17,.22-1.52,.66s-.53,1-.53,1.68c0,.75,.18,1.32,.55,1.72s.85,.59,1.43,.59c.19,0,.39-.03,.6-.09s.42-.16,.63-.28l.43,.69Z" style="fill: #767676;"/>
    <path d="M151.4,207.81c-.2,0-.36-.07-.49-.2s-.2-.29-.2-.48,.07-.35,.2-.48,.3-.2,.49-.2,.36,.07,.49,.2,.2,.29,.2,.48-.07,.35-.2,.48-.3,.2-.49,.2Zm.47,7.44h-.96v-6h.96v6Z" style="fill: #767676;"/>
    <path d="M156.32,215.39c-.89,0-1.59-.28-2.12-.84s-.79-1.3-.79-2.23c0-1,.27-1.79,.82-2.36s1.29-.85,2.24-.86c.89,0,1.59,.27,2.09,.83s.75,1.32,.75,2.29-.27,1.73-.81,2.3-1.27,.86-2.18,.86Zm.07-.81c.62,0,1.1-.2,1.43-.61s.5-.98,.5-1.71-.17-1.33-.5-1.74-.81-.61-1.43-.61-1.11,.21-1.46,.63-.54,1-.54,1.73,.18,1.27,.54,1.68,.85,.62,1.46,.62Zm-.03-6.47h-.74l1.31-1.92h.97l-1.54,1.92Z" style="fill: #767676;"/>
    <path d="M165.83,215.25h-.96v-3.42c0-.64-.12-1.11-.35-1.43s-.58-.48-1.05-.48-.88,.18-1.19,.54-.47,.82-.47,1.37v3.42h-.96v-6h.96v1h.02c.23-.38,.5-.66,.83-.85s.71-.28,1.14-.28c.66,0,1.16,.21,1.51,.64s.52,1.04,.52,1.84v3.67Z" style="fill: #767676;"/>
    <path d="M170.36,214.8l.46-.74c.26,.17,.52,.3,.77,.39s.52,.13,.81,.13c.41,0,.72-.08,.93-.23s.32-.38,.32-.69c0-.25-.09-.45-.28-.62s-.49-.31-.89-.41c-.75-.19-1.26-.43-1.54-.72s-.42-.65-.42-1.08c0-.49,.19-.9,.56-1.23s.89-.5,1.55-.5c.32,0,.62,.04,.91,.12s.58,.22,.88,.42l-.43,.73c-.27-.17-.52-.29-.74-.36s-.44-.1-.66-.1c-.39,0-.68,.07-.88,.21s-.3,.35-.3,.62,.1,.47,.31,.61,.55,.27,1.01,.39c.61,.16,1.07,.39,1.37,.69s.45,.68,.45,1.16c0,.55-.2,.99-.59,1.32s-.93,.48-1.61,.48c-.37,0-.72-.05-1.06-.15s-.65-.25-.94-.44Z" style="fill: #767676;"/>
    <path d="M180.84,212.47h-4.24c.02,.68,.19,1.2,.54,1.56s.82,.55,1.44,.55c.27,0,.54-.04,.81-.12s.54-.21,.81-.38l.45,.69c-.34,.22-.68,.38-1.02,.48s-.71,.15-1.12,.15c-.91,0-1.61-.27-2.12-.81s-.76-1.29-.77-2.26,.25-1.74,.76-2.33,1.18-.88,2-.88,1.39,.25,1.82,.76,.65,1.22,.65,2.12v.47Zm-.98-.79c0-.55-.14-.99-.4-1.3s-.63-.47-1.1-.47-.84,.16-1.16,.48-.51,.75-.58,1.29h3.25Z" style="fill: #767676;"/>
    <path d="M190.56,215.25h-.96v-3.46c0-.62-.12-1.09-.35-1.41s-.58-.47-1.05-.47-.86,.18-1.18,.54-.48,.83-.48,1.39v3.4h-.96v-8.88h.96v3.88h.02c.23-.38,.51-.66,.84-.85s.71-.28,1.13-.28c.68,0,1.18,.2,1.52,.61s.51,1.02,.51,1.83v3.7Z" style="fill: #767676;"/>
    <path d="M196.62,215.25h-.96v-.94h-.02c-.21,.36-.46,.63-.76,.81s-.66,.27-1.06,.27c-.56,0-1.02-.16-1.37-.49s-.52-.76-.52-1.31c0-.51,.18-.94,.53-1.27s.85-.55,1.49-.64l1.71-.23v-.13c0-.5-.12-.86-.35-1.08s-.55-.32-.94-.32c-.31,0-.61,.06-.9,.18s-.56,.3-.81,.54l-.56-.58c.34-.32,.69-.56,1.07-.71s.8-.23,1.27-.23c.73,0,1.27,.19,1.64,.56s.55,.93,.55,1.68v3.9Zm-.96-2.44v-.6l-1.45,.2c-.44,.06-.77,.17-1,.33s-.33,.41-.33,.76,.1,.63,.31,.82,.46,.28,.76,.28c.52,0,.93-.17,1.24-.51s.46-.77,.46-1.29Z" style="fill: #767676;"/>
    <path d="M205.98,214.89c-.28,.17-.55,.3-.83,.38s-.58,.12-.91,.12c-.84,0-1.54-.26-2.08-.79s-.81-1.27-.81-2.23,.27-1.77,.82-2.37,1.29-.9,2.25-.9c.31,0,.6,.04,.88,.11s.56,.2,.85,.36l-.4,.7c-.22-.12-.44-.22-.66-.28s-.45-.09-.7-.09c-.66,0-1.17,.22-1.52,.66s-.53,1-.53,1.68c0,.75,.18,1.32,.55,1.72s.85,.59,1.43,.59c.19,0,.39-.03,.6-.09s.42-.16,.63-.28l.43,.69Z" style="fill: #767676;"/>
    <path d="M209.81,215.39c-.89,0-1.59-.28-2.12-.84s-.79-1.3-.79-2.23c0-1,.27-1.79,.82-2.36s1.29-.85,2.24-.86c.89,0,1.59,.27,2.09,.83s.75,1.32,.75,2.29-.27,1.73-.81,2.3-1.27,.86-2.18,.86Zm.07-.81c.62,0,1.1-.2,1.43-.61s.5-.98,.5-1.71-.17-1.33-.5-1.74-.81-.61-1.43-.61-1.11,.21-1.46,.63-.54,1-.54,1.73,.18,1.27,.54,1.68,.85,.62,1.46,.62Z" style="fill: #767676;"/>
    <path d="M222.86,215.25h-.96v-3.45c0-.66-.1-1.14-.31-1.44s-.55-.45-1.03-.45c-.41,0-.76,.19-1.05,.56s-.43,.82-.43,1.35v3.42h-.96v-3.56c0-.59-.11-1.03-.34-1.33s-.57-.44-1.03-.44c-.42,0-.77,.18-1.04,.53s-.41,.81-.41,1.38v3.42h-.96v-6h.96v.95h.02c.21-.36,.48-.64,.79-.82s.67-.27,1.08-.27,.77,.11,1.07,.34,.51,.53,.63,.9c.22-.41,.5-.72,.83-.93s.72-.31,1.16-.31c.66,0,1.16,.2,1.49,.61s.5,1.02,.5,1.83v3.7Z" style="fill: #767676;"/>
    <path d="M225.66,214.38h-.02v3.63h-.96v-8.76h.96v1.05h.02c.24-.4,.53-.7,.88-.9s.75-.3,1.2-.3c.77,0,1.38,.27,1.81,.81s.65,1.26,.65,2.16c0,1-.24,1.81-.73,2.41s-1.16,.91-2,.91c-.39,0-.73-.08-1.03-.25s-.56-.42-.77-.76Zm-.02-2.42v.84c0,.5,.16,.92,.48,1.26s.73,.52,1.23,.52c.58,0,1.04-.22,1.37-.67s.5-1.06,.5-1.86c0-.67-.15-1.19-.46-1.57s-.73-.57-1.25-.57c-.56,0-1.01,.19-1.35,.58s-.51,.88-.51,1.46Z" style="fill: #767676;"/>
    <path d="M231.73,215.25v-8.88h.96v8.88h-.96Z" style="fill: #767676;"/>
    <path d="M239.46,212.47h-4.24c.02,.68,.19,1.2,.54,1.56s.82,.55,1.44,.55c.27,0,.54-.04,.81-.12s.54-.21,.81-.38l.45,.69c-.34,.22-.68,.38-1.02,.48s-.71,.15-1.12,.15c-.91,0-1.61-.27-2.12-.81s-.76-1.29-.77-2.26,.25-1.74,.76-2.33,1.18-.88,2-.88,1.39,.25,1.82,.76,.65,1.22,.65,2.12v.47Zm-.98-.79c0-.55-.14-.99-.4-1.3s-.63-.47-1.1-.47-.84,.16-1.16,.48-.51,.75-.58,1.29h3.25Z" style="fill: #767676;"/>
    <path d="M243.77,215.18c-.16,.07-.33,.12-.48,.15s-.34,.05-.54,.05c-.48,0-.85-.14-1.12-.42s-.41-.69-.41-1.24v-3.65h-1.03v-.82h1.03v-1.46l.96-.31v1.78h1.51v.82h-1.51v3.54c0,.34,.06,.59,.18,.74s.31,.23,.55,.23c.12,0,.23-.01,.34-.04s.2-.06,.28-.09l.23,.73Z" style="fill: #767676;"/>
    <path d="M249.22,215.25h-.96v-.94h-.02c-.21,.36-.46,.63-.76,.81s-.66,.27-1.06,.27c-.56,0-1.02-.16-1.37-.49s-.52-.76-.52-1.31c0-.51,.18-.94,.53-1.27s.85-.55,1.49-.64l1.71-.23v-.13c0-.5-.12-.86-.35-1.08s-.55-.32-.94-.32c-.31,0-.61,.06-.9,.18s-.56,.3-.81,.54l-.56-.58c.34-.32,.69-.56,1.07-.71s.8-.23,1.27-.23c.73,0,1.27,.19,1.64,.56s.55,.93,.55,1.68v3.9Zm-.96-2.44v-.6l-1.45,.2c-.44,.06-.77,.17-1,.33s-.33,.41-.33,.76,.1,.63,.31,.82,.46,.28,.76,.28c.52,0,.93-.17,1.24-.51s.46-.77,.46-1.29Z" style="fill: #767676;"/>
    <path d="M255.22,214.23c-.22,.39-.5,.68-.85,.87s-.75,.29-1.22,.29c-.75,0-1.36-.27-1.81-.81s-.68-1.27-.68-2.19c0-.99,.25-1.79,.75-2.38s1.17-.9,2-.9c.41,0,.77,.08,1.07,.24s.54,.41,.73,.73h.02v-3.71h.96v8.88h-.96v-1.02h-.02Zm-3.56-1.89c0,.69,.16,1.24,.48,1.64s.75,.6,1.3,.6,.97-.19,1.31-.58,.5-.88,.5-1.46v-.88c0-.48-.16-.89-.48-1.23s-.73-.5-1.22-.5c-.59,0-1.05,.21-1.38,.64s-.5,1.02-.5,1.78Z" style="fill: #767676;"/>
    <path d="M260.65,215.39c-.89,0-1.59-.28-2.12-.84s-.79-1.3-.79-2.23c0-1,.27-1.79,.82-2.36s1.29-.85,2.24-.86c.89,0,1.59,.27,2.09,.83s.75,1.32,.75,2.29-.27,1.73-.81,2.3-1.27,.86-2.18,.86Zm.07-.81c.62,0,1.1-.2,1.43-.61s.5-.98,.5-1.71-.17-1.33-.5-1.74-.81-.61-1.43-.61-1.11,.21-1.46,.63-.54,1-.54,1.73,.18,1.27,.54,1.68,.85,.62,1.46,.62Z" style="fill: #767676;"/>
    <path d="M273.24,209.25l-2.83,7.14c-.22,.56-.5,.98-.84,1.26s-.73,.42-1.18,.42c-.12,0-.22,0-.32-.02s-.19-.03-.28-.06l.19-.82c.07,.02,.14,.04,.2,.05s.12,.01,.18,.01c.26,0,.47-.07,.64-.2s.31-.32,.41-.56l.52-1.24-2.34-5.99h1.07l1.62,4.62s.02,.08,.04,.16,.05,.18,.08,.3h.04s.03-.11,.04-.18,.04-.16,.07-.26l1.71-4.63h1Z" style="fill: #767676;"/>
    <path d="M282.38,212.47h-4.24c.02,.68,.19,1.2,.54,1.56s.82,.55,1.44,.55c.27,0,.54-.04,.81-.12s.54-.21,.81-.38l.45,.69c-.34,.22-.68,.38-1.02,.48s-.71,.15-1.12,.15c-.91,0-1.61-.27-2.12-.81s-.76-1.29-.77-2.26,.25-1.74,.76-2.33,1.18-.88,2-.88,1.39,.25,1.82,.76,.65,1.22,.65,2.12v.47Zm-.98-.79c0-.55-.14-.99-.4-1.3s-.63-.47-1.1-.47-.84,.16-1.16,.48-.51,.75-.58,1.29h3.25Z" style="fill: #767676;"/>
    <path d="M283.83,215.25v-8.88h.96v8.88h-.96Z" style="fill: #767676;"/>
    <path d="M294.28,215.25h-.96v-.94h-.02c-.21,.36-.46,.63-.76,.81s-.66,.27-1.06,.27c-.56,0-1.02-.16-1.37-.49s-.52-.76-.52-1.31c0-.51,.18-.94,.53-1.27s.85-.55,1.49-.64l1.71-.23v-.13c0-.5-.12-.86-.35-1.08s-.55-.32-.94-.32c-.31,0-.61,.06-.9,.18s-.56,.3-.81,.54l-.56-.58c.34-.32,.69-.56,1.07-.71s.8-.23,1.27-.23c.73,0,1.27,.19,1.64,.56s.55,.93,.55,1.68v3.9Zm-.96-2.44v-.6l-1.45,.2c-.44,.06-.77,.17-1,.33s-.33,.41-.33,.76,.1,.63,.31,.82,.46,.28,.76,.28c.52,0,.93-.17,1.24-.51s.46-.77,.46-1.29Z" style="fill: #767676;"/>
    <path d="M300.35,214.89c-.28,.17-.55,.3-.83,.38s-.58,.12-.91,.12c-.84,0-1.54-.26-2.08-.79s-.81-1.27-.81-2.23,.27-1.77,.82-2.37,1.29-.9,2.25-.9c.31,0,.6,.04,.88,.11s.56,.2,.85,.36l-.4,.7c-.22-.12-.44-.22-.66-.28s-.45-.09-.7-.09c-.66,0-1.17,.22-1.52,.66s-.53,1-.53,1.68c0,.75,.18,1.32,.55,1.72s.85,.59,1.43,.59c.19,0,.39-.03,.6-.09s.42-.16,.63-.28l.43,.69Z" style="fill: #767676;"/>
    <path d="M305.89,214.89c-.28,.17-.55,.3-.83,.38s-.58,.12-.91,.12c-.84,0-1.54-.26-2.08-.79s-.81-1.27-.81-2.23,.27-1.77,.82-2.37,1.29-.9,2.25-.9c.31,0,.6,.04,.88,.11s.56,.2,.85,.36l-.4,.7c-.22-.12-.44-.22-.66-.28s-.45-.09-.7-.09c-.66,0-1.17,.22-1.52,.66s-.53,1-.53,1.68c0,.75,.18,1.32,.55,1.72s.85,.59,1.43,.59c.19,0,.39-.03,.6-.09s.42-.16,.63-.28l.43,.69Z" style="fill: #767676;"/>
    <path d="M312.04,212.47h-4.24c.02,.68,.19,1.2,.54,1.56s.82,.55,1.44,.55c.27,0,.54-.04,.81-.12s.54-.21,.81-.38l.45,.69c-.34,.22-.68,.38-1.02,.48s-.71,.15-1.12,.15c-.91,0-1.61-.27-2.12-.81s-.76-1.29-.77-2.26,.25-1.74,.76-2.33,1.18-.88,2-.88,1.39,.25,1.82,.76,.65,1.22,.65,2.12v.47Zm-.98-.79c0-.55-.14-.99-.4-1.3s-.63-.47-1.1-.47-.84,.16-1.16,.48-.51,.75-.58,1.29h3.25Z" style="fill: #767676;"/>
    <path d="M312.93,214.8l.46-.74c.26,.17,.52,.3,.77,.39s.52,.13,.81,.13c.41,0,.72-.08,.93-.23s.32-.38,.32-.69c0-.25-.09-.45-.28-.62s-.49-.31-.89-.41c-.75-.19-1.26-.43-1.54-.72s-.42-.65-.42-1.08c0-.49,.19-.9,.56-1.23s.89-.5,1.55-.5c.32,0,.62,.04,.91,.12s.58,.22,.88,.42l-.43,.73c-.27-.17-.52-.29-.74-.36s-.44-.1-.66-.1c-.39,0-.68,.07-.88,.21s-.3,.35-.3,.62,.1,.47,.31,.61,.55,.27,1.01,.39c.61,.16,1.07,.39,1.37,.69s.45,.68,.45,1.16c0,.55-.2,.99-.59,1.32s-.93,.48-1.61,.48c-.37,0-.72-.05-1.06-.15s-.65-.25-.94-.44Z" style="fill: #767676;"/>
    <path d="M321.09,215.39c-.89,0-1.59-.28-2.12-.84s-.79-1.3-.79-2.23c0-1,.27-1.79,.82-2.36s1.29-.85,2.24-.86c.89,0,1.59,.27,2.09,.83s.75,1.32,.75,2.29-.27,1.73-.81,2.3-1.27,.86-2.18,.86Zm.07-.81c.62,0,1.1-.2,1.43-.61s.5-.98,.5-1.71-.17-1.33-.5-1.74-.81-.61-1.43-.61-1.11,.21-1.46,.63-.54,1-.54,1.73,.18,1.27,.54,1.68,.85,.62,1.46,.62Z" style="fill: #767676;"/>
    <path d="M136.25,229.65h-.96v-.94h-.02c-.21,.36-.46,.63-.76,.81s-.66,.27-1.06,.27c-.56,0-1.02-.16-1.37-.49s-.52-.76-.52-1.31c0-.51,.18-.94,.53-1.27s.85-.55,1.49-.64l1.71-.23v-.13c0-.5-.12-.86-.35-1.08s-.55-.32-.94-.32c-.31,0-.61,.06-.9,.18s-.56,.3-.81,.54l-.56-.58c.34-.32,.69-.56,1.07-.71s.8-.23,1.27-.23c.73,0,1.27,.19,1.64,.56s.55,.93,.55,1.68v3.9Zm-.96-2.44v-.6l-1.45,.2c-.44,.06-.77,.17-1,.33s-.33,.41-.33,.76,.1,.63,.31,.82,.46,.28,.76,.28c.52,0,.93-.17,1.24-.51s.46-.77,.46-1.29Z" style="fill: #767676;"/>
    <path d="M140.83,229.2l.46-.74c.26,.17,.52,.3,.77,.39s.52,.13,.81,.13c.41,0,.72-.08,.93-.23s.32-.38,.32-.69c0-.25-.09-.45-.28-.62s-.49-.31-.89-.41c-.75-.19-1.26-.43-1.54-.72s-.42-.65-.42-1.08c0-.49,.19-.9,.56-1.23s.89-.5,1.55-.5c.32,0,.62,.04,.91,.12s.58,.22,.88,.42l-.43,.73c-.27-.17-.52-.29-.74-.36s-.44-.1-.66-.1c-.39,0-.68,.07-.88,.21s-.3,.35-.3,.62,.1,.47,.31,.61,.55,.27,1.01,.39c.61,.16,1.07,.39,1.37,.69s.45,.68,.45,1.16c0,.55-.2,.99-.59,1.32s-.93,.48-1.61,.48c-.37,0-.72-.05-1.06-.15s-.65-.25-.94-.44Z" style="fill: #767676;"/>
    <path d="M151.34,229.65h-.96v-.95h-.02c-.2,.36-.45,.64-.76,.82s-.67,.27-1.09,.27c-.71,0-1.25-.21-1.61-.64s-.54-1.06-.54-1.92v-3.59h.96v3.43c0,.63,.12,1.11,.36,1.42s.61,.47,1.09,.47,.85-.17,1.16-.52,.45-.8,.45-1.36v-3.46h.96v6Z" style="fill: #767676;"/>
    <path d="M160.78,229.29c-.28,.17-.55,.3-.83,.38s-.58,.12-.91,.12c-.84,0-1.54-.26-2.08-.79s-.81-1.27-.81-2.23,.27-1.77,.82-2.37,1.29-.9,2.25-.9c.31,0,.6,.04,.88,.11s.56,.2,.85,.36l-.4,.7c-.22-.12-.44-.22-.66-.28s-.45-.09-.7-.09c-.66,0-1.17,.22-1.52,.66s-.53,1-.53,1.68c0,.75,.18,1.32,.55,1.72s.85,.59,1.43,.59c.19,0,.39-.03,.6-.09s.42-.16,.63-.28l.43,.69Z" style="fill: #767676;"/>
    <path d="M166.96,229.65h-.96v-.95h-.02c-.2,.36-.45,.64-.76,.82s-.67,.27-1.09,.27c-.71,0-1.25-.21-1.61-.64s-.54-1.06-.54-1.92v-3.59h.96v3.43c0,.63,.12,1.11,.36,1.42s.61,.47,1.09,.47,.85-.17,1.16-.52,.45-.8,.45-1.36v-3.46h.96v6Z" style="fill: #767676;"/>
    <path d="M173.72,226.87h-4.24c.02,.68,.19,1.2,.54,1.56s.82,.55,1.44,.55c.27,0,.54-.04,.81-.12s.54-.21,.81-.38l.45,.69c-.34,.22-.68,.38-1.02,.48s-.71,.15-1.12,.15c-.91,0-1.61-.27-2.12-.81s-.76-1.29-.77-2.26,.25-1.74,.76-2.33,1.18-.88,2-.88,1.39,.25,1.82,.76,.65,1.22,.65,2.12v.47Zm-.98-.79c0-.55-.14-.99-.4-1.3s-.63-.47-1.1-.47-.84,.16-1.16,.48-.51,.75-.58,1.29h3.25Z" style="fill: #767676;"/>
    <path d="M180.16,229.65h-.96v-3.42c0-.64-.12-1.11-.35-1.43s-.58-.48-1.05-.48-.88,.18-1.19,.54-.47,.82-.47,1.37v3.42h-.96v-6h.96v1h.02c.23-.38,.5-.66,.83-.85s.71-.28,1.14-.28c.66,0,1.16,.21,1.51,.64s.52,1.04,.52,1.84v3.67Z" style="fill: #767676;"/>
    <path d="M184.83,229.58c-.16,.07-.33,.12-.48,.15s-.34,.05-.54,.05c-.48,0-.85-.14-1.12-.42s-.41-.69-.41-1.24v-3.65h-1.03v-.82h1.03v-1.46l.96-.31v1.78h1.51v.82h-1.51v3.54c0,.34,.06,.59,.18,.74s.31,.23,.55,.23c.12,0,.23-.01,.34-.04s.2-.06,.28-.09l.23,.73Z" style="fill: #767676;"/>
    <path d="M190.28,229.65h-.96v-.94h-.02c-.21,.36-.46,.63-.76,.81s-.66,.27-1.06,.27c-.56,0-1.02-.16-1.37-.49s-.52-.76-.52-1.31c0-.51,.18-.94,.53-1.27s.85-.55,1.49-.64l1.71-.23v-.13c0-.5-.12-.86-.35-1.08s-.55-.32-.94-.32c-.31,0-.61,.06-.9,.18s-.56,.3-.81,.54l-.56-.58c.34-.32,.69-.56,1.07-.71s.8-.23,1.27-.23c.73,0,1.27,.19,1.64,.56s.55,.93,.55,1.68v3.9Zm-.96-2.44v-.6l-1.45,.2c-.44,.06-.77,.17-1,.33s-.33,.41-.33,.76,.1,.63,.31,.82,.46,.28,.76,.28c.52,0,.93-.17,1.24-.51s.46-.77,.46-1.29Z" style="fill: #767676;"/>
    <path d="M200.41,229.65h-.96v-3.46c0-.62-.12-1.09-.35-1.41s-.58-.47-1.05-.47-.86,.18-1.18,.54-.48,.83-.48,1.39v3.4h-.96v-8.88h.96v3.88h.02c.23-.38,.51-.66,.84-.85s.71-.28,1.13-.28c.68,0,1.18,.2,1.52,.61s.51,1.02,.51,1.83v3.7Z" style="fill: #767676;"/>
    <path d="M206.46,229.65h-.96v-.94h-.02c-.21,.36-.46,.63-.76,.81s-.66,.27-1.06,.27c-.56,0-1.02-.16-1.37-.49s-.52-.76-.52-1.31c0-.51,.18-.94,.53-1.27s.85-.55,1.49-.64l1.71-.23v-.13c0-.5-.12-.86-.35-1.08s-.55-.32-.94-.32c-.31,0-.61,.06-.9,.18s-.56,.3-.81,.54l-.56-.58c.34-.32,.69-.56,1.07-.71s.8-.23,1.27-.23c.73,0,1.27,.19,1.64,.56s.55,.93,.55,1.68v3.9Zm-.96-2.44v-.6l-1.45,.2c-.44,.06-.77,.17-1,.33s-.33,.41-.33,.76,.1,.63,.31,.82,.46,.28,.76,.28c.52,0,.93-.17,1.24-.51s.46-.77,.46-1.29Z" style="fill: #767676;"/>
    <path d="M211.05,229.2l.46-.74c.26,.17,.52,.3,.77,.39s.52,.13,.81,.13c.41,0,.72-.08,.93-.23s.32-.38,.32-.69c0-.25-.09-.45-.28-.62s-.49-.31-.89-.41c-.75-.19-1.26-.43-1.54-.72s-.42-.65-.42-1.08c0-.49,.19-.9,.56-1.23s.89-.5,1.55-.5c.32,0,.62,.04,.91,.12s.58,.22,.88,.42l-.43,.73c-.27-.17-.52-.29-.74-.36s-.44-.1-.66-.1c-.39,0-.68,.07-.88,.21s-.3,.35-.3,.62,.1,.47,.31,.61,.55,.27,1.01,.39c.61,.16,1.07,.39,1.37,.69s.45,.68,.45,1.16c0,.55-.2,.99-.59,1.32s-.93,.48-1.61,.48c-.37,0-.72-.05-1.06-.15s-.65-.25-.94-.44Z" style="fill: #767676;"/>
    <path d="M217.19,222.21c-.2,0-.36-.07-.49-.2s-.2-.29-.2-.48,.07-.35,.2-.48,.3-.2,.49-.2,.36,.07,.49,.2,.2,.29,.2,.48-.07,.35-.2,.48-.3,.2-.49,.2Zm.47,7.44h-.96v-6h.96v6Z" style="fill: #767676;"/>
    <path d="M223.74,228.63c-.22,.39-.5,.68-.85,.87s-.75,.29-1.22,.29c-.75,0-1.36-.27-1.81-.81s-.68-1.27-.68-2.19c0-.99,.25-1.79,.75-2.38s1.17-.9,2-.9c.41,0,.77,.08,1.07,.24s.54,.41,.73,.73h.02v-3.71h.96v8.88h-.96v-1.02h-.02Zm-3.56-1.89c0,.69,.16,1.24,.48,1.64s.75,.6,1.3,.6,.97-.19,1.31-.58,.5-.88,.5-1.46v-.88c0-.48-.16-.89-.48-1.23s-.73-.5-1.22-.5c-.59,0-1.05,.21-1.38,.64s-.5,1.02-.5,1.78Z" style="fill: #767676;"/>
    <path d="M229.18,229.79c-.89,0-1.59-.28-2.12-.84s-.79-1.3-.79-2.23c0-1,.27-1.79,.82-2.36s1.29-.85,2.24-.86c.89,0,1.59,.27,2.09,.83s.75,1.32,.75,2.29-.27,1.73-.81,2.3-1.27,.86-2.18,.86Zm.07-.81c.62,0,1.1-.2,1.43-.61s.5-.98,.5-1.71-.17-1.33-.5-1.74-.81-.61-1.43-.61-1.11,.21-1.46,.63-.54,1-.54,1.73,.18,1.27,.54,1.68,.85,.62,1.46,.62Z" style="fill: #767676;"/>
    <path d="M239.95,224.47c-.07-.02-.14-.04-.2-.05s-.13-.01-.22-.01c-.49,0-.87,.21-1.15,.62s-.42,.94-.42,1.56v3.06h-.96v-6h.96v1.19h.02c.14-.42,.35-.74,.63-.96s.61-.33,.97-.33c.12,0,.22,0,.31,.02s.16,.03,.23,.05l-.16,.86Z" style="fill: #767676;"/>
    <path d="M245.99,226.87h-4.24c.02,.68,.19,1.2,.54,1.56s.82,.55,1.44,.55c.27,0,.54-.04,.81-.12s.54-.21,.81-.38l.45,.69c-.34,.22-.68,.38-1.02,.48s-.71,.15-1.12,.15c-.91,0-1.61-.27-2.12-.81s-.76-1.29-.77-2.26,.25-1.74,.76-2.33,1.18-.88,2-.88,1.39,.25,1.82,.76,.65,1.22,.65,2.12v.47Zm-.98-.79c0-.55-.14-.99-.4-1.3s-.63-.47-1.1-.47-.84,.16-1.16,.48-.51,.75-.58,1.29h3.25Z" style="fill: #767676;"/>
    <path d="M252.42,229.65h-.96v-3.42c0-.64-.12-1.11-.35-1.43s-.58-.48-1.05-.48-.88,.18-1.19,.54-.47,.82-.47,1.37v3.42h-.96v-6h.96v1h.02c.23-.38,.5-.66,.83-.85s.71-.28,1.14-.28c.66,0,1.16,.21,1.51,.64s.52,1.04,.52,1.84v3.67Z" style="fill: #767676;"/>
    <path d="M256.74,229.79c-.89,0-1.59-.28-2.12-.84s-.79-1.3-.79-2.23c0-1,.27-1.79,.82-2.36s1.29-.85,2.24-.86c.89,0,1.59,.27,2.09,.83s.75,1.32,.75,2.29-.27,1.73-.81,2.3-1.27,.86-2.18,.86Zm.07-.81c.62,0,1.1-.2,1.43-.61s.5-.98,.5-1.71-.17-1.33-.5-1.74-.81-.61-1.43-.61-1.11,.21-1.46,.63-.54,1-.54,1.73,.18,1.27,.54,1.68,.85,.62,1.46,.62Z" style="fill: #767676;"/>
    <path d="M265.98,223.65l-2.39,6h-.94l-2.27-6h1.05l1.52,4.36c.05,.16,.1,.31,.13,.45s.06,.27,.08,.39h.02c.02-.15,.04-.3,.08-.43s.07-.26,.11-.38l1.59-4.38h1.01Z" style="fill: #767676;"/>
    <path d="M271.26,229.65h-.96v-.94h-.02c-.21,.36-.46,.63-.76,.81s-.66,.27-1.06,.27c-.56,0-1.02-.16-1.37-.49s-.52-.76-.52-1.31c0-.51,.18-.94,.53-1.27s.85-.55,1.49-.64l1.71-.23v-.13c0-.5-.12-.86-.35-1.08s-.55-.32-.94-.32c-.31,0-.61,.06-.9,.18s-.56,.3-.81,.54l-.56-.58c.34-.32,.69-.56,1.07-.71s.8-.23,1.27-.23c.73,0,1.27,.19,1.64,.56s.55,.93,.55,1.68v3.9Zm-.96-2.44v-.6l-1.45,.2c-.44,.06-.77,.17-1,.33s-.33,.41-.33,.76,.1,.63,.31,.82,.46,.28,.76,.28c.52,0,.93-.17,1.24-.51s.46-.77,.46-1.29Z" style="fill: #767676;"/>
    <path d="M277.25,228.63c-.22,.39-.5,.68-.85,.87s-.75,.29-1.22,.29c-.75,0-1.36-.27-1.81-.81s-.68-1.27-.68-2.19c0-.99,.25-1.79,.75-2.38s1.17-.9,2-.9c.41,0,.77,.08,1.07,.24s.54,.41,.73,.73h.02v-3.71h.96v8.88h-.96v-1.02h-.02Zm-3.56-1.89c0,.69,.16,1.24,.48,1.64s.75,.6,1.3,.6,.97-.19,1.31-.58,.5-.88,.5-1.46v-.88c0-.48-.16-.89-.48-1.23s-.73-.5-1.22-.5c-.59,0-1.05,.21-1.38,.64s-.5,1.02-.5,1.78Z" style="fill: #767676;"/>
    <path d="M282.69,229.79c-.89,0-1.59-.28-2.12-.84s-.79-1.3-.79-2.23c0-1,.27-1.79,.82-2.36s1.29-.85,2.24-.86c.89,0,1.59,.27,2.09,.83s.75,1.32,.75,2.29-.27,1.73-.81,2.3-1.27,.86-2.18,.86Zm.07-.81c.62,0,1.1-.2,1.43-.61s.5-.98,.5-1.71-.17-1.33-.5-1.74-.81-.61-1.43-.61-1.11,.21-1.46,.63-.54,1-.54,1.73,.18,1.27,.54,1.68,.85,.62,1.46,.62Z" style="fill: #767676;"/>
    <path d="M287.54,229.78c-.19,0-.35-.07-.48-.2s-.2-.29-.2-.47,.07-.34,.2-.47,.29-.2,.48-.2,.35,.07,.48,.2,.2,.29,.2,.47-.07,.34-.2,.47-.29,.2-.48,.2Z" style="fill: #767676;"/>
  </g>
</svg>